%TF.GenerationSoftware,KiCad,Pcbnew,10.0.6*%
%TF.CreationDate,2026-09-20T17:53:56+02:00*%
%TF.ProjectId,pepermoot-spiegelbeeld,70657065-726d-46f6-9f74-2d7370696567,rev?*%
%TF.SameCoordinates,Original*%
%TF.FileFunction,Copper,L1,Top*%
%TF.FilePolarity,Positive*%
%FSLAX46Y46*%
G04 Gerber Fmt 4.6, Leading zero omitted, Abs format (unit mm)*
G04 Created by KiCad (PCBNEW 10.0.6) date 2026-09-20 17:53:56*
%MOMM*%
%LPD*%
G01*
G04 APERTURE LIST*
G04 Aperture macros list*
%AMRoundRect*
0 Rectangle with rounded corners*
0 $1 Rounding radius*
0 $2 $3 $4 $5 $6 $7 $8 $9 X,Y pos of 4 corners*
0 Add a 4 corners polygon primitive as box body*
4,1,4,$2,$3,$4,$5,$6,$7,$8,$9,$2,$3,0*
0 Add four circle primitives for the rounded corners*
1,1,$1+$1,$2,$3*
1,1,$1+$1,$4,$5*
1,1,$1+$1,$6,$7*
1,1,$1+$1,$8,$9*
0 Add four rect primitives between the rounded corners*
20,1,$1+$1,$2,$3,$4,$5,0*
20,1,$1+$1,$4,$5,$6,$7,0*
20,1,$1+$1,$6,$7,$8,$9,0*
20,1,$1+$1,$8,$9,$2,$3,0*%
G04 Aperture macros list end*
%TA.AperFunction,ComponentPad*%
%ADD10C,1.400000*%
%TD*%
%TA.AperFunction,ComponentPad*%
%ADD11RoundRect,0.250000X-0.750000X-0.750000X0.750000X-0.750000X0.750000X0.750000X-0.750000X0.750000X0*%
%TD*%
%TA.AperFunction,ComponentPad*%
%ADD12C,2.000000*%
%TD*%
%TA.AperFunction,ComponentPad*%
%ADD13RoundRect,0.250000X-0.750000X0.750000X-0.750000X-0.750000X0.750000X-0.750000X0.750000X0.750000X0*%
%TD*%
%TA.AperFunction,ComponentPad*%
%ADD14RoundRect,0.250000X0.750000X0.750000X-0.750000X0.750000X-0.750000X-0.750000X0.750000X-0.750000X0*%
%TD*%
%TA.AperFunction,ComponentPad*%
%ADD15R,1.800000X1.800000*%
%TD*%
%TA.AperFunction,ComponentPad*%
%ADD16C,1.800000*%
%TD*%
%TA.AperFunction,ComponentPad*%
%ADD17R,2.000000X1.200000*%
%TD*%
%TA.AperFunction,ComponentPad*%
%ADD18O,2.000000X1.200000*%
%TD*%
%TA.AperFunction,ComponentPad*%
%ADD19C,1.600000*%
%TD*%
%TA.AperFunction,ComponentPad*%
%ADD20R,1.600000X1.600000*%
%TD*%
%TA.AperFunction,ComponentPad*%
%ADD21O,1.600000X1.600000*%
%TD*%
%TA.AperFunction,Conductor*%
%ADD22C,2.000000*%
%TD*%
%TA.AperFunction,Conductor*%
%ADD23C,1.500000*%
%TD*%
%TA.AperFunction,Conductor*%
%ADD24C,1.000000*%
%TD*%
G04 APERTURE END LIST*
D10*
%TO.P,R4,1*%
%TO.N,Net-(A1-M0)*%
X107120000Y-38500000D03*
%TO.P,R4,2*%
%TO.N,Net-(A1-~{EN})*%
X99500000Y-38500000D03*
%TD*%
D11*
%TO.P,C2,1*%
%TO.N,+5V*%
X59632323Y-119000000D03*
D12*
%TO.P,C2,2*%
%TO.N,GND*%
X64632323Y-119000000D03*
%TD*%
D13*
%TO.P,J4,1,Pin_1_1*%
%TO.N,Net-(A1-B2)*%
X66500000Y-56000000D03*
D12*
%TO.P,J4,2,Pin_2_2*%
%TO.N,Net-(A1-B1)*%
X66500000Y-58540000D03*
%TO.P,J4,3,Pin_3_3*%
%TO.N,Net-(A1-A2)*%
X66500000Y-61080000D03*
%TO.P,J4,4,Pin_4_4*%
%TO.N,Net-(A1-A1)*%
X66500000Y-63620000D03*
%TD*%
D14*
%TO.P,J3,1,Pin_1_1*%
%TO.N,GND*%
X66500000Y-133000000D03*
D12*
%TO.P,J3,2,Pin_2_2*%
%TO.N,+5V*%
X63960000Y-133000000D03*
%TO.P,J3,3,Pin_3_3*%
%TO.N,+24V*%
X61420000Y-133000000D03*
%TD*%
D15*
%TO.P,D1,1,K_1*%
%TO.N,Net-(D1-K)*%
X62075000Y-93000000D03*
D16*
%TO.P,D1,2,A_2*%
%TO.N,Net-(A1-M0)*%
X59535000Y-93000000D03*
%TD*%
D17*
%TO.P,U2,1,3V3_1*%
%TO.N,Net-(A1-M0)*%
X115900000Y-76000000D03*
D18*
%TO.P,U2,2,CHIP_PU_2*%
%TO.N,unconnected-(U2-CHIP_PU-Pad2)*%
X115900000Y-78540000D03*
%TO.P,U2,3,SENSOR_VP/GPIO36/ADC1_CH0_3*%
%TO.N,unconnected-(U2-SENSOR_VP{slash}GPIO36{slash}ADC1_CH0-Pad3)*%
X115900000Y-81080000D03*
%TO.P,U2,4,SENSOR_VN/GPIO39/ADC1_CH3_4*%
%TO.N,unconnected-(U2-SENSOR_VN{slash}GPIO39{slash}ADC1_CH3-Pad4)*%
X115900000Y-83620000D03*
%TO.P,U2,5,VDET_1/GPIO34/ADC1_CH6_5*%
%TO.N,unconnected-(U2-VDET_1{slash}GPIO34{slash}ADC1_CH6-Pad5)*%
X115900000Y-86160000D03*
%TO.P,U2,6,VDET_2/GPIO35/ADC1_CH7_6*%
%TO.N,unconnected-(U2-VDET_2{slash}GPIO35{slash}ADC1_CH7-Pad6)*%
X115900000Y-88700000D03*
%TO.P,U2,7,32K_XP/GPIO32/ADC1_CH4_7*%
%TO.N,Net-(J9-Pin_2)*%
X115900000Y-91240000D03*
%TO.P,U2,8,32K_XN/GPIO33/ADC1_CH5_8*%
%TO.N,Net-(J9-Pin_3)*%
X115900000Y-93780000D03*
%TO.P,U2,9,DAC_1/ADC2_CH8/GPIO25_9*%
%TO.N,Net-(A1-STEP)*%
X115900000Y-96320000D03*
%TO.P,U2,10,DAC_2/ADC2_CH9/GPIO26_10*%
%TO.N,Net-(A1-DIR)*%
X115900000Y-98860000D03*
%TO.P,U2,11,ADC2_CH7/GPIO27_11*%
%TO.N,Net-(J8-Pin_3)*%
X115900000Y-101400000D03*
%TO.P,U2,12,MTMS/GPIO14/ADC2_CH6_12*%
%TO.N,unconnected-(U2-MTMS{slash}GPIO14{slash}ADC2_CH6-Pad12)*%
X115900000Y-103940000D03*
%TO.P,U2,13,MTDI/GPIO12/ADC2_CH5_13*%
%TO.N,unconnected-(U2-MTDI{slash}GPIO12{slash}ADC2_CH5-Pad13)*%
X115900000Y-106480000D03*
%TO.P,U2,14,GND_14*%
%TO.N,GND*%
X115900000Y-109020000D03*
%TO.P,U2,15,MTCK/GPIO13/ADC2_CH4_15*%
%TO.N,unconnected-(U2-MTCK{slash}GPIO13{slash}ADC2_CH4-Pad15)*%
X115900000Y-111560000D03*
%TO.P,U2,16,SD_DATA2/GPIO9_16*%
%TO.N,unconnected-(U2-SD_DATA2{slash}GPIO9-Pad16)*%
X115900000Y-114100000D03*
%TO.P,U2,17,SD_DATA3/GPIO10_17*%
%TO.N,unconnected-(U2-SD_DATA3{slash}GPIO10-Pad17)*%
X115900000Y-116640000D03*
%TO.P,U2,18,CMD_18*%
%TO.N,unconnected-(U2-CMD-Pad18)*%
X115900000Y-119180000D03*
%TO.P,U2,19,5V_19*%
%TO.N,+5V*%
X115900000Y-121720000D03*
%TO.P,U2,20,SD_CLK/GPIO6_20*%
%TO.N,unconnected-(U2-SD_CLK{slash}GPIO6-Pad20)*%
X90503680Y-121717280D03*
%TO.P,U2,21,SD_DATA0/GPIO7_21*%
%TO.N,unconnected-(U2-SD_DATA0{slash}GPIO7-Pad21)*%
X90503680Y-119177280D03*
%TO.P,U2,22,SD_DATA1/GPIO8_22*%
%TO.N,unconnected-(U2-SD_DATA1{slash}GPIO8-Pad22)*%
X90500000Y-116640000D03*
%TO.P,U2,23,MTDO/GPIO15/ADC2_CH3_23*%
%TO.N,unconnected-(U2-MTDO{slash}GPIO15{slash}ADC2_CH3-Pad23)*%
X90500000Y-114100000D03*
%TO.P,U2,24,ADC2_CH2/GPIO2_24*%
%TO.N,unconnected-(U2-ADC2_CH2{slash}GPIO2-Pad24)*%
X90500000Y-111560000D03*
%TO.P,U2,25,GPIO0/BOOT/ADC2_CH1_25*%
%TO.N,unconnected-(U2-GPIO0{slash}BOOT{slash}ADC2_CH1-Pad25)*%
X90500000Y-109020000D03*
%TO.P,U2,26,ADC2_CH0/GPIO4_26*%
%TO.N,Net-(U2-ADC2_CH0{slash}GPIO4)*%
X90500000Y-106480000D03*
%TO.P,U2,27,GPIO16_27*%
%TO.N,Net-(J8-Pin_2)*%
X90500000Y-103940000D03*
%TO.P,U2,28,GPIO17_28*%
%TO.N,Net-(J8-Pin_1)*%
X90500000Y-101400000D03*
%TO.P,U2,29,GPIO5_29*%
%TO.N,unconnected-(U2-GPIO5-Pad29)*%
X90500000Y-98860000D03*
%TO.P,U2,30,GPIO18_30*%
%TO.N,Net-(U2-GPIO18)*%
X90500000Y-96320000D03*
%TO.P,U2,31,GPIO19_31*%
%TO.N,Net-(U2-GPIO19)*%
X90500000Y-93780000D03*
%TO.P,U2,32,GND_32*%
%TO.N,GND*%
X90500000Y-91240000D03*
%TO.P,U2,33,GPIO21_33*%
%TO.N,Net-(J7-Pin_3)*%
X90500000Y-88700000D03*
%TO.P,U2,34,U0RXD/GPIO3_34*%
%TO.N,unconnected-(U2-U0RXD{slash}GPIO3-Pad34)*%
X90500000Y-86160000D03*
%TO.P,U2,35,U0TXD/GPIO1_35*%
%TO.N,unconnected-(U2-U0TXD{slash}GPIO1-Pad35)*%
X90500000Y-83620000D03*
%TO.P,U2,36,GPIO22_36*%
%TO.N,Net-(J7-Pin_1)*%
X90500000Y-81080000D03*
%TO.P,U2,37,GPIO23_37*%
%TO.N,Net-(A1-~{EN})*%
X90500000Y-78540000D03*
%TO.P,U2,38,GND_38*%
%TO.N,GND*%
X90500000Y-76000000D03*
%TD*%
D13*
%TO.P,J7,1,Pin_1_1*%
%TO.N,Net-(J7-Pin_1)*%
X66500000Y-74000000D03*
D12*
%TO.P,J7,2,Pin_2_2*%
%TO.N,GND*%
X66500000Y-76540000D03*
%TO.P,J7,3,Pin_3_3*%
%TO.N,Net-(J7-Pin_3)*%
X66500000Y-79080000D03*
%TO.P,J7,4,Pin_4_4*%
%TO.N,GND*%
X66500000Y-81620000D03*
%TD*%
D15*
%TO.P,D2,1,K_1*%
%TO.N,Net-(D2-K)*%
X62075000Y-100000000D03*
D16*
%TO.P,D2,2,A_2*%
%TO.N,Net-(A1-M0)*%
X59535000Y-100000000D03*
%TD*%
D14*
%TO.P,J9,1,Pin_1_1*%
%TO.N,GND*%
X130000000Y-133000000D03*
D12*
%TO.P,J9,2,Pin_2_2*%
%TO.N,Net-(J9-Pin_2)*%
X127460000Y-133000000D03*
%TO.P,J9,3,Pin_3_3*%
%TO.N,Net-(J9-Pin_3)*%
X124920000Y-133000000D03*
%TO.P,J9,4,Pin_4_4*%
%TO.N,GND*%
X122380000Y-133000000D03*
%TO.P,J9,5,Pin_5_5*%
%TO.N,+5V*%
X119840000Y-133000000D03*
%TD*%
D19*
%TO.P,R3,1*%
%TO.N,Net-(D3-K)*%
X72000000Y-107000000D03*
%TO.P,R3,2*%
%TO.N,Net-(U2-ADC2_CH0{slash}GPIO4)*%
X82160000Y-107000000D03*
%TD*%
D14*
%TO.P,C1,1*%
%TO.N,+24V*%
X90500000Y-47000000D03*
D12*
%TO.P,C1,2*%
%TO.N,GND*%
X85500000Y-47000000D03*
%TD*%
D19*
%TO.P,R2,1*%
%TO.N,Net-(D2-K)*%
X72190000Y-100000000D03*
%TO.P,R2,2*%
%TO.N,Net-(U2-GPIO18)*%
X82350000Y-100000000D03*
%TD*%
D20*
%TO.P,A1,1,GND_1*%
%TO.N,GND*%
X97660000Y-62390000D03*
D21*
%TO.P,A1,2,~{FLT}_2*%
%TO.N,unconnected-(A1-~{FLT}-Pad2)*%
X97660000Y-59850000D03*
%TO.P,A1,3,A2_3*%
%TO.N,Net-(A1-A2)*%
X97660000Y-57310000D03*
%TO.P,A1,4,A1_4*%
%TO.N,Net-(A1-A1)*%
X97660000Y-54770000D03*
%TO.P,A1,5,B1_5*%
%TO.N,Net-(A1-B1)*%
X97660000Y-52230000D03*
%TO.P,A1,6,B2_6*%
%TO.N,Net-(A1-B2)*%
X97660000Y-49690000D03*
%TO.P,A1,7,GND_7*%
%TO.N,GND*%
X97660000Y-47150000D03*
%TO.P,A1,8,VMOT_8*%
%TO.N,+24V*%
X97660000Y-44610000D03*
%TO.P,A1,9,~{EN}_9*%
%TO.N,Net-(A1-~{EN})*%
X110360000Y-44610000D03*
%TO.P,A1,10,M0_10*%
%TO.N,Net-(A1-M0)*%
X110360000Y-47150000D03*
%TO.P,A1,11,M1_11*%
X110360000Y-49690000D03*
%TO.P,A1,12,M2_12*%
X110360000Y-52230000D03*
%TO.P,A1,13,~{RST}_13*%
X110360000Y-54770000D03*
%TO.P,A1,14,~{SLP}_14*%
X110360000Y-57310000D03*
%TO.P,A1,15,STEP_15*%
%TO.N,Net-(A1-STEP)*%
X110360000Y-59850000D03*
%TO.P,A1,16,DIR_16*%
%TO.N,Net-(A1-DIR)*%
X110360000Y-62390000D03*
%TD*%
D14*
%TO.P,J8,1,Pin_1_1*%
%TO.N,Net-(J8-Pin_1)*%
X86160000Y-133000000D03*
D12*
%TO.P,J8,2,Pin_2_2*%
%TO.N,Net-(J8-Pin_2)*%
X83620000Y-133000000D03*
%TO.P,J8,3,Pin_3_3*%
%TO.N,Net-(J8-Pin_3)*%
X81080000Y-133000000D03*
%TO.P,J8,4,Pin_4_4*%
%TO.N,GND*%
X78540000Y-133000000D03*
%TO.P,J8,5,Pin_5_5*%
%TO.N,+24V*%
X76000000Y-133000000D03*
%TD*%
D19*
%TO.P,R1,1*%
%TO.N,Net-(D1-K)*%
X72190000Y-93000000D03*
%TO.P,R1,2*%
%TO.N,Net-(U2-GPIO19)*%
X82350000Y-93000000D03*
%TD*%
D15*
%TO.P,D3,1,K_1*%
%TO.N,Net-(D3-K)*%
X62075000Y-107200000D03*
D16*
%TO.P,D3,2,A_2*%
%TO.N,Net-(A1-M0)*%
X59535000Y-107200000D03*
%TD*%
%TO.N,GND*%
D22*
X101150000Y-47150000D02*
X102000000Y-48000000D01*
%TO.N,Net-(A1-~{EN})*%
D23*
X90500000Y-78540000D02*
X97460000Y-78540000D01*
X105000000Y-71000000D02*
X105000000Y-44000000D01*
X90500000Y-78540000D02*
X90160000Y-78540000D01*
X108110000Y-44610000D02*
X110360000Y-44610000D01*
X97460000Y-78540000D02*
X105000000Y-71000000D01*
%TO.N,Net-(A1-M0)*%
X69000000Y-35500000D02*
X104120000Y-35500000D01*
X118850000Y-47150000D02*
X119000000Y-47000000D01*
X110360000Y-49690000D02*
X110360000Y-52230000D01*
X59535000Y-100000000D02*
X59535000Y-93000000D01*
X117000000Y-38500000D02*
X107120000Y-38500000D01*
X59535000Y-93000000D02*
X56000000Y-89465000D01*
X104120000Y-35500000D02*
X107120000Y-38500000D01*
X110360000Y-52230000D02*
X110360000Y-54770000D01*
X110360000Y-47150000D02*
X110360000Y-49690000D01*
%TO.N,+5V*%
X59632323Y-128867677D02*
X60000000Y-128500000D01*
%TO.N,GND*%
D22*
X122380000Y-111380000D02*
X120020000Y-109020000D01*
X83000000Y-89000000D02*
X78540000Y-89000000D01*
X126000000Y-137000000D02*
X116500000Y-146500000D01*
X85500000Y-47000000D02*
X67000000Y-47000000D01*
X61000000Y-53000000D02*
X61000000Y-70500000D01*
X106500000Y-141500000D02*
X110500000Y-137500000D01*
X102000000Y-48000000D02*
X102000000Y-60000000D01*
X66500000Y-133000000D02*
X66500000Y-120867677D01*
X66500000Y-76540000D02*
X61040000Y-76540000D01*
X78540000Y-89000000D02*
X78540000Y-83040000D01*
X124000000Y-137000000D02*
X126000000Y-137000000D01*
X66500000Y-81620000D02*
X61620000Y-81620000D01*
%TO.N,+5V*%
D23*
X58500000Y-130000000D02*
X59632323Y-128867677D01*
X119840000Y-139660000D02*
X115500000Y-144000000D01*
X60000000Y-128500000D02*
X62500000Y-128500000D01*
X115500000Y-144000000D02*
X67000000Y-144000000D01*
X116220000Y-121720000D02*
X119840000Y-125340000D01*
X59632323Y-128867677D02*
X59632323Y-119000000D01*
X64000000Y-130000000D02*
X63960000Y-130040000D01*
X119840000Y-133000000D02*
X119840000Y-139660000D01*
X62500000Y-128500000D02*
X64000000Y-130000000D01*
X67000000Y-144000000D02*
X58500000Y-135500000D01*
X119840000Y-125340000D02*
X119840000Y-133000000D01*
X115900000Y-121720000D02*
X116220000Y-121720000D01*
X63960000Y-130040000D02*
X63960000Y-133000000D01*
%TO.N,GND*%
D22*
X55500000Y-117500000D02*
X57000000Y-116000000D01*
%TO.N,+5V*%
D23*
X58500000Y-135500000D02*
X58500000Y-130000000D01*
%TO.N,Net-(A1-~{EN})*%
X105610000Y-44610000D02*
X105000000Y-44000000D01*
X110360000Y-44610000D02*
X105610000Y-44610000D01*
X108000000Y-44500000D02*
X108110000Y-44610000D01*
X105000000Y-44000000D02*
X99500000Y-38500000D01*
%TO.N,Net-(A1-M0)*%
X115900000Y-76000000D02*
X119000000Y-72900000D01*
X110360000Y-47150000D02*
X118850000Y-47150000D01*
X56000000Y-89465000D02*
X56000000Y-48500000D01*
X119000000Y-47000000D02*
X119000000Y-40500000D01*
X56000000Y-48500000D02*
X69000000Y-35500000D01*
X59535000Y-107200000D02*
X59535000Y-100000000D01*
X110360000Y-54770000D02*
X110360000Y-57310000D01*
X119000000Y-40500000D02*
X117000000Y-38500000D01*
X119000000Y-72900000D02*
X119000000Y-47000000D01*
%TO.N,GND*%
D22*
X122380000Y-133000000D02*
X122380000Y-111380000D01*
X126000000Y-137000000D02*
X128500000Y-137000000D01*
X130000000Y-135500000D02*
X130000000Y-133000000D01*
X61000000Y-81000000D02*
X61000000Y-76500000D01*
X112980000Y-109020000D02*
X115900000Y-109020000D01*
X55500000Y-136000000D02*
X55500000Y-117500000D01*
X78540000Y-133000000D02*
X78540000Y-89000000D01*
X116500000Y-146500000D02*
X66000000Y-146500000D01*
X80000000Y-141500000D02*
X106500000Y-141500000D01*
X90500000Y-76000000D02*
X87500000Y-76000000D01*
X90500000Y-91240000D02*
X85240000Y-91240000D01*
X78540000Y-133000000D02*
X78540000Y-140040000D01*
X61040000Y-76540000D02*
X61000000Y-76500000D01*
X66000000Y-146500000D02*
X55500000Y-136000000D01*
X64632323Y-116632323D02*
X64632323Y-119000000D01*
X97660000Y-47150000D02*
X101150000Y-47150000D01*
X85240000Y-91240000D02*
X83000000Y-89000000D01*
X64000000Y-116000000D02*
X64632323Y-116632323D01*
X120020000Y-109020000D02*
X115900000Y-109020000D01*
X128500000Y-137000000D02*
X130000000Y-135500000D01*
X102000000Y-60000000D02*
X99610000Y-62390000D01*
X66500000Y-120867677D02*
X64632323Y-119000000D01*
X110500000Y-137500000D02*
X110500000Y-111500000D01*
X87500000Y-76000000D02*
X82000000Y-70500000D01*
X97660000Y-73340000D02*
X95000000Y-76000000D01*
X95000000Y-76000000D02*
X90500000Y-76000000D01*
X99610000Y-62390000D02*
X97660000Y-62390000D01*
X77120000Y-81620000D02*
X66500000Y-81620000D01*
X61620000Y-81620000D02*
X61000000Y-81000000D01*
X57000000Y-116000000D02*
X64000000Y-116000000D01*
X61000000Y-70500000D02*
X61000000Y-76500000D01*
X97660000Y-62390000D02*
X97660000Y-73340000D01*
X67000000Y-47000000D02*
X61000000Y-53000000D01*
X122380000Y-135380000D02*
X124000000Y-137000000D01*
X82000000Y-70500000D02*
X61000000Y-70500000D01*
X110500000Y-111500000D02*
X112980000Y-109020000D01*
X78540000Y-140040000D02*
X80000000Y-141500000D01*
X122380000Y-133000000D02*
X122380000Y-135380000D01*
X78540000Y-83040000D02*
X77120000Y-81620000D01*
%TO.N,Net-(A1-B2)*%
D23*
X87810000Y-49690000D02*
X81500000Y-56000000D01*
X81500000Y-56000000D02*
X66500000Y-56000000D01*
X97660000Y-49690000D02*
X87810000Y-49690000D01*
%TO.N,Net-(A1-B1)*%
X90770000Y-52230000D02*
X84460000Y-58540000D01*
X97660000Y-52230000D02*
X90770000Y-52230000D01*
X84460000Y-58540000D02*
X66500000Y-58540000D01*
%TO.N,Net-(A1-A2)*%
X93500000Y-59500000D02*
X95690000Y-57310000D01*
X93500000Y-66500000D02*
X93500000Y-59500000D01*
X65500000Y-68000000D02*
X92000000Y-68000000D01*
X63500000Y-66000000D02*
X65500000Y-68000000D01*
X95690000Y-57310000D02*
X97660000Y-57310000D01*
X92000000Y-68000000D02*
X93500000Y-66500000D01*
X65080000Y-61080000D02*
X65000000Y-61000000D01*
X65000000Y-61000000D02*
X63500000Y-62500000D01*
X66500000Y-61080000D02*
X65080000Y-61080000D01*
X63500000Y-62500000D02*
X63500000Y-66000000D01*
%TO.N,Net-(A1-A1)*%
X66500000Y-63620000D02*
X85380000Y-63620000D01*
X94230000Y-54770000D02*
X97660000Y-54770000D01*
X85380000Y-63620000D02*
X94230000Y-54770000D01*
%TO.N,+24V*%
D22*
X76000000Y-133000000D02*
X72500000Y-133000000D01*
X94960000Y-43460000D02*
X90500000Y-43460000D01*
X96110000Y-44610000D02*
X94960000Y-43460000D01*
X72500000Y-137500000D02*
X72500000Y-133000000D01*
X61420000Y-133000000D02*
X61420000Y-134920000D01*
X64000000Y-137500000D02*
X72500000Y-137500000D01*
X97660000Y-44610000D02*
X96110000Y-44610000D01*
X73000000Y-89000000D02*
X62500000Y-89000000D01*
X72500000Y-122920000D02*
X72500000Y-133000000D01*
X65000000Y-43500000D02*
X58500000Y-50000000D01*
X74920000Y-90920000D02*
X73000000Y-89000000D01*
X90500000Y-47000000D02*
X90500000Y-43460000D01*
X74920000Y-120500000D02*
X72500000Y-122920000D01*
X73000000Y-43500000D02*
X65000000Y-43500000D01*
X74920000Y-120500000D02*
X74920000Y-90920000D01*
X73040000Y-43460000D02*
X73000000Y-43500000D01*
X90500000Y-43460000D02*
X73040000Y-43460000D01*
X58500000Y-85000000D02*
X62500000Y-89000000D01*
X58500000Y-50000000D02*
X58500000Y-85000000D01*
X61420000Y-134920000D02*
X64000000Y-137500000D01*
%TO.N,Net-(D1-K)*%
D23*
X72190000Y-93000000D02*
X62075000Y-93000000D01*
%TO.N,Net-(J9-Pin_2)*%
X127500000Y-95000000D02*
X127460000Y-95040000D01*
X115900000Y-91240000D02*
X123740000Y-91240000D01*
X127460000Y-95040000D02*
X127460000Y-133000000D01*
X123740000Y-91240000D02*
X127500000Y-95000000D01*
%TO.N,Net-(J9-Pin_3)*%
X115900000Y-93780000D02*
X122280000Y-93780000D01*
X124920000Y-133000000D02*
X124920000Y-96420000D01*
X124920000Y-96420000D02*
X122280000Y-93780000D01*
%TO.N,Net-(A1-STEP)*%
X112850000Y-59850000D02*
X114000000Y-61000000D01*
X110360000Y-59850000D02*
X112850000Y-59850000D01*
X114000000Y-61000000D02*
X114000000Y-66000000D01*
X113820000Y-96320000D02*
X115900000Y-96320000D01*
X114000000Y-66000000D02*
X111000000Y-69000000D01*
X111000000Y-69000000D02*
X111000000Y-93500000D01*
X111000000Y-93500000D02*
X113820000Y-96320000D01*
%TO.N,Net-(A1-DIR)*%
X108000000Y-95000000D02*
X108000000Y-64750000D01*
X108000000Y-64750000D02*
X110360000Y-62390000D01*
X115900000Y-98860000D02*
X111860000Y-98860000D01*
X111860000Y-98860000D02*
X108000000Y-95000000D01*
%TO.N,Net-(J8-Pin_3)*%
X82500000Y-138500000D02*
X81080000Y-137080000D01*
X103500000Y-138500000D02*
X82500000Y-138500000D01*
X111600000Y-101400000D02*
X105000000Y-108000000D01*
X105000000Y-108000000D02*
X105000000Y-137000000D01*
X81080000Y-137080000D02*
X81080000Y-133000000D01*
X115900000Y-101400000D02*
X111600000Y-101400000D01*
X105000000Y-137000000D02*
X103500000Y-138500000D01*
%TO.N,Net-(U2-ADC2_CH0{slash}GPIO4)*%
X90500000Y-106480000D02*
X82680000Y-106480000D01*
X82680000Y-106480000D02*
X82160000Y-107000000D01*
%TO.N,Net-(J8-Pin_2)*%
X95000000Y-107000000D02*
X95000000Y-123000000D01*
X95000000Y-123000000D02*
X92000000Y-126000000D01*
X91940000Y-103940000D02*
X95000000Y-107000000D01*
X90500000Y-103940000D02*
X91940000Y-103940000D01*
X85500000Y-126000000D02*
X83620000Y-127880000D01*
X83620000Y-127880000D02*
X83620000Y-133000000D01*
X92000000Y-126000000D02*
X85500000Y-126000000D01*
%TO.N,Net-(J8-Pin_1)*%
X93400000Y-101400000D02*
X97540000Y-105540000D01*
X97540000Y-125460000D02*
X90000000Y-133000000D01*
X97540000Y-105540000D02*
X97540000Y-125460000D01*
X90500000Y-101400000D02*
X93400000Y-101400000D01*
X90000000Y-133000000D02*
X86160000Y-133000000D01*
%TO.N,Net-(U2-GPIO18)*%
X90500000Y-96320000D02*
X86030000Y-96320000D01*
X86030000Y-96320000D02*
X82350000Y-100000000D01*
%TO.N,Net-(U2-GPIO19)*%
X83130000Y-93780000D02*
X82350000Y-93000000D01*
X90500000Y-93780000D02*
X83130000Y-93780000D01*
%TO.N,Net-(J7-Pin_3)*%
X78080000Y-79080000D02*
X66500000Y-79080000D01*
X87700000Y-88700000D02*
X78080000Y-79080000D01*
X90500000Y-88700000D02*
X87700000Y-88700000D01*
%TO.N,Net-(J7-Pin_1)*%
X79000000Y-74000000D02*
X66500000Y-74000000D01*
X86080000Y-81080000D02*
X79000000Y-74000000D01*
X90500000Y-81080000D02*
X86080000Y-81080000D01*
%TO.N,Net-(D2-K)*%
X72190000Y-100000000D02*
X62075000Y-100000000D01*
%TO.N,Net-(D3-K)*%
D24*
X62275000Y-107000000D02*
X62075000Y-107200000D01*
D23*
X72000000Y-107000000D02*
X62275000Y-107000000D01*
%TD*%
M02*
