M48
; DRILL file KiCad 10.0.6 date 2026-09-20T19:21:53
; FORMAT={-:-/ absolute / metric / decimal}
; #@! TF.CreationDate,2026-09-20T19:21:53+02:00
; #@! TF.GenerationSoftware,Kicad,Pcbnew,10.0.6
; #@! TF.FileFunction,MixedPlating,1,2
FMAT,2
METRIC
; #@! TA.AperFunction,Plated,PTH,ComponentDrill
T1C0.700
; #@! TA.AperFunction,Plated,PTH,ComponentDrill
T2C0.800
; #@! TA.AperFunction,Plated,PTH,ComponentDrill
T3C0.900
; #@! TA.AperFunction,Plated,PTH,ComponentDrill
T4C1.000
; #@! TA.AperFunction,Plated,PTH,ComponentDrill
T5C1.200
; #@! TA.AperFunction,NonPlated,NPTH,ComponentDrill
T6C3.200
%
G90
G05
T1
X99.5Y-38.5
X107.12Y-38.5
T2
X72.0Y-107.0
X72.19Y-93.0
X72.19Y-100.0
X82.16Y-107.0
X82.35Y-93.0
X82.35Y-100.0
X90.5Y-76.0
X90.5Y-78.54
X90.5Y-81.08
X90.5Y-83.62
X90.5Y-86.16
X90.5Y-88.7
X90.5Y-91.24
X90.5Y-93.78
X90.5Y-96.32
X90.5Y-98.86
X90.5Y-101.4
X90.5Y-103.94
X90.5Y-106.48
X90.5Y-109.02
X90.5Y-111.56
X90.5Y-114.1
X90.5Y-116.64
X90.504Y-119.177
X90.504Y-121.717
X97.66Y-44.61
X97.66Y-47.15
X97.66Y-49.69
X97.66Y-52.23
X97.66Y-54.77
X97.66Y-57.31
X97.66Y-59.85
X97.66Y-62.39
X110.36Y-44.61
X110.36Y-47.15
X110.36Y-49.69
X110.36Y-52.23
X110.36Y-54.77
X110.36Y-57.31
X110.36Y-59.85
X110.36Y-62.39
X115.9Y-76.0
X115.9Y-78.54
X115.9Y-81.08
X115.9Y-83.62
X115.9Y-86.16
X115.9Y-88.7
X115.9Y-91.24
X115.9Y-93.78
X115.9Y-96.32
X115.9Y-98.86
X115.9Y-101.4
X115.9Y-103.94
X115.9Y-106.48
X115.9Y-109.02
X115.9Y-111.56
X115.9Y-114.1
X115.9Y-116.64
X115.9Y-119.18
X115.9Y-121.72
T3
X59.535Y-93.0
X59.535Y-100.0
X59.535Y-107.2
X62.075Y-93.0
X62.075Y-100.0
X62.075Y-107.2
T4
X59.632Y-119.0
X64.632Y-119.0
X85.5Y-47.0
X90.5Y-47.0
T5
X61.42Y-133.0
X63.96Y-133.0
X66.5Y-56.0
X66.5Y-58.54
X66.5Y-61.08
X66.5Y-63.62
X66.5Y-74.0
X66.5Y-76.54
X66.5Y-79.08
X66.5Y-81.62
X66.5Y-133.0
X76.0Y-133.0
X78.54Y-133.0
X81.08Y-133.0
X83.62Y-133.0
X86.16Y-133.0
X119.84Y-133.0
X122.38Y-133.0
X124.92Y-133.0
X127.46Y-133.0
X130.0Y-133.0
T6
X56.0Y-36.0
X56.0Y-146.0
X131.0Y-36.0
X131.0Y-146.0
M30
