%TF.GenerationSoftware,KiCad,Pcbnew,10.0.6*%
%TF.CreationDate,2026-09-20T17:54:20+02:00*%
%TF.ProjectId,pepermoot-spiegelbeeld,70657065-726d-46f6-9f74-2d7370696567,rev?*%
%TF.SameCoordinates,Original*%
%TF.FileFunction,Drillmap*%
%TF.FilePolarity,Positive*%
%FSLAX45Y45*%
G04 Gerber Fmt 4.5, Leading zero omitted, Abs format (unit mm)*
G04 Created by KiCad (PCBNEW 10.0.6) date 2026-09-20 17:54:20*
%MOMM*%
%LPD*%
G01*
G04 APERTURE LIST*
%ADD10C,0.050000*%
%ADD11C,0.200000*%
%ADD12C,0.100000*%
%ADD13C,0.120000*%
G04 APERTURE END LIST*
D10*
X5200000Y-3150000D02*
X13500000Y-3150000D01*
X13500000Y-15050000D01*
X5200000Y-15050000D01*
X5200000Y-3150000D01*
D11*
D12*
X9915000Y-3815000D02*
X9985000Y-3885000D01*
X9985000Y-3815000D02*
X9915000Y-3885000D01*
X10677000Y-3815000D02*
X10747000Y-3885000D01*
X10747000Y-3815000D02*
X10677000Y-3885000D01*
X7240000Y-10700000D02*
G75*
G02*
X7160000Y-10700000I-40000J0D01*
G01*
X7160000Y-10700000D02*
G75*
G02*
X7240000Y-10700000I40000J0D01*
G01*
X7259000Y-9300000D02*
G75*
G02*
X7179000Y-9300000I-40000J0D01*
G01*
X7179000Y-9300000D02*
G75*
G02*
X7259000Y-9300000I40000J0D01*
G01*
X7259000Y-10000000D02*
G75*
G02*
X7179000Y-10000000I-40000J0D01*
G01*
X7179000Y-10000000D02*
G75*
G02*
X7259000Y-10000000I40000J0D01*
G01*
X8256000Y-10700000D02*
G75*
G02*
X8176000Y-10700000I-40000J0D01*
G01*
X8176000Y-10700000D02*
G75*
G02*
X8256000Y-10700000I40000J0D01*
G01*
X8275000Y-9300000D02*
G75*
G02*
X8195000Y-9300000I-40000J0D01*
G01*
X8195000Y-9300000D02*
G75*
G02*
X8275000Y-9300000I40000J0D01*
G01*
X8275000Y-10000000D02*
G75*
G02*
X8195000Y-10000000I-40000J0D01*
G01*
X8195000Y-10000000D02*
G75*
G02*
X8275000Y-10000000I40000J0D01*
G01*
X9090000Y-7600000D02*
G75*
G02*
X9010000Y-7600000I-40000J0D01*
G01*
X9010000Y-7600000D02*
G75*
G02*
X9090000Y-7600000I40000J0D01*
G01*
X9090000Y-7854000D02*
G75*
G02*
X9010000Y-7854000I-40000J0D01*
G01*
X9010000Y-7854000D02*
G75*
G02*
X9090000Y-7854000I40000J0D01*
G01*
X9090000Y-8108000D02*
G75*
G02*
X9010000Y-8108000I-40000J0D01*
G01*
X9010000Y-8108000D02*
G75*
G02*
X9090000Y-8108000I40000J0D01*
G01*
X9090000Y-8362000D02*
G75*
G02*
X9010000Y-8362000I-40000J0D01*
G01*
X9010000Y-8362000D02*
G75*
G02*
X9090000Y-8362000I40000J0D01*
G01*
X9090000Y-8616000D02*
G75*
G02*
X9010000Y-8616000I-40000J0D01*
G01*
X9010000Y-8616000D02*
G75*
G02*
X9090000Y-8616000I40000J0D01*
G01*
X9090000Y-8870000D02*
G75*
G02*
X9010000Y-8870000I-40000J0D01*
G01*
X9010000Y-8870000D02*
G75*
G02*
X9090000Y-8870000I40000J0D01*
G01*
X9090000Y-9124000D02*
G75*
G02*
X9010000Y-9124000I-40000J0D01*
G01*
X9010000Y-9124000D02*
G75*
G02*
X9090000Y-9124000I40000J0D01*
G01*
X9090000Y-9378000D02*
G75*
G02*
X9010000Y-9378000I-40000J0D01*
G01*
X9010000Y-9378000D02*
G75*
G02*
X9090000Y-9378000I40000J0D01*
G01*
X9090000Y-9632000D02*
G75*
G02*
X9010000Y-9632000I-40000J0D01*
G01*
X9010000Y-9632000D02*
G75*
G02*
X9090000Y-9632000I40000J0D01*
G01*
X9090000Y-9886000D02*
G75*
G02*
X9010000Y-9886000I-40000J0D01*
G01*
X9010000Y-9886000D02*
G75*
G02*
X9090000Y-9886000I40000J0D01*
G01*
X9090000Y-10140000D02*
G75*
G02*
X9010000Y-10140000I-40000J0D01*
G01*
X9010000Y-10140000D02*
G75*
G02*
X9090000Y-10140000I40000J0D01*
G01*
X9090000Y-10394000D02*
G75*
G02*
X9010000Y-10394000I-40000J0D01*
G01*
X9010000Y-10394000D02*
G75*
G02*
X9090000Y-10394000I40000J0D01*
G01*
X9090000Y-10648000D02*
G75*
G02*
X9010000Y-10648000I-40000J0D01*
G01*
X9010000Y-10648000D02*
G75*
G02*
X9090000Y-10648000I40000J0D01*
G01*
X9090000Y-10902000D02*
G75*
G02*
X9010000Y-10902000I-40000J0D01*
G01*
X9010000Y-10902000D02*
G75*
G02*
X9090000Y-10902000I40000J0D01*
G01*
X9090000Y-11156000D02*
G75*
G02*
X9010000Y-11156000I-40000J0D01*
G01*
X9010000Y-11156000D02*
G75*
G02*
X9090000Y-11156000I40000J0D01*
G01*
X9090000Y-11410000D02*
G75*
G02*
X9010000Y-11410000I-40000J0D01*
G01*
X9010000Y-11410000D02*
G75*
G02*
X9090000Y-11410000I40000J0D01*
G01*
X9090000Y-11664000D02*
G75*
G02*
X9010000Y-11664000I-40000J0D01*
G01*
X9010000Y-11664000D02*
G75*
G02*
X9090000Y-11664000I40000J0D01*
G01*
X9090368Y-11917728D02*
G75*
G02*
X9010368Y-11917728I-40000J0D01*
G01*
X9010368Y-11917728D02*
G75*
G02*
X9090368Y-11917728I40000J0D01*
G01*
X9090368Y-12171728D02*
G75*
G02*
X9010368Y-12171728I-40000J0D01*
G01*
X9010368Y-12171728D02*
G75*
G02*
X9090368Y-12171728I40000J0D01*
G01*
X9806000Y-4461000D02*
G75*
G02*
X9726000Y-4461000I-40000J0D01*
G01*
X9726000Y-4461000D02*
G75*
G02*
X9806000Y-4461000I40000J0D01*
G01*
X9806000Y-4715000D02*
G75*
G02*
X9726000Y-4715000I-40000J0D01*
G01*
X9726000Y-4715000D02*
G75*
G02*
X9806000Y-4715000I40000J0D01*
G01*
X9806000Y-4969000D02*
G75*
G02*
X9726000Y-4969000I-40000J0D01*
G01*
X9726000Y-4969000D02*
G75*
G02*
X9806000Y-4969000I40000J0D01*
G01*
X9806000Y-5223000D02*
G75*
G02*
X9726000Y-5223000I-40000J0D01*
G01*
X9726000Y-5223000D02*
G75*
G02*
X9806000Y-5223000I40000J0D01*
G01*
X9806000Y-5477000D02*
G75*
G02*
X9726000Y-5477000I-40000J0D01*
G01*
X9726000Y-5477000D02*
G75*
G02*
X9806000Y-5477000I40000J0D01*
G01*
X9806000Y-5731000D02*
G75*
G02*
X9726000Y-5731000I-40000J0D01*
G01*
X9726000Y-5731000D02*
G75*
G02*
X9806000Y-5731000I40000J0D01*
G01*
X9806000Y-5985000D02*
G75*
G02*
X9726000Y-5985000I-40000J0D01*
G01*
X9726000Y-5985000D02*
G75*
G02*
X9806000Y-5985000I40000J0D01*
G01*
X9806000Y-6239000D02*
G75*
G02*
X9726000Y-6239000I-40000J0D01*
G01*
X9726000Y-6239000D02*
G75*
G02*
X9806000Y-6239000I40000J0D01*
G01*
X11076000Y-4461000D02*
G75*
G02*
X10996000Y-4461000I-40000J0D01*
G01*
X10996000Y-4461000D02*
G75*
G02*
X11076000Y-4461000I40000J0D01*
G01*
X11076000Y-4715000D02*
G75*
G02*
X10996000Y-4715000I-40000J0D01*
G01*
X10996000Y-4715000D02*
G75*
G02*
X11076000Y-4715000I40000J0D01*
G01*
X11076000Y-4969000D02*
G75*
G02*
X10996000Y-4969000I-40000J0D01*
G01*
X10996000Y-4969000D02*
G75*
G02*
X11076000Y-4969000I40000J0D01*
G01*
X11076000Y-5223000D02*
G75*
G02*
X10996000Y-5223000I-40000J0D01*
G01*
X10996000Y-5223000D02*
G75*
G02*
X11076000Y-5223000I40000J0D01*
G01*
X11076000Y-5477000D02*
G75*
G02*
X10996000Y-5477000I-40000J0D01*
G01*
X10996000Y-5477000D02*
G75*
G02*
X11076000Y-5477000I40000J0D01*
G01*
X11076000Y-5731000D02*
G75*
G02*
X10996000Y-5731000I-40000J0D01*
G01*
X10996000Y-5731000D02*
G75*
G02*
X11076000Y-5731000I40000J0D01*
G01*
X11076000Y-5985000D02*
G75*
G02*
X10996000Y-5985000I-40000J0D01*
G01*
X10996000Y-5985000D02*
G75*
G02*
X11076000Y-5985000I40000J0D01*
G01*
X11076000Y-6239000D02*
G75*
G02*
X10996000Y-6239000I-40000J0D01*
G01*
X10996000Y-6239000D02*
G75*
G02*
X11076000Y-6239000I40000J0D01*
G01*
X11630000Y-7600000D02*
G75*
G02*
X11550000Y-7600000I-40000J0D01*
G01*
X11550000Y-7600000D02*
G75*
G02*
X11630000Y-7600000I40000J0D01*
G01*
X11630000Y-7854000D02*
G75*
G02*
X11550000Y-7854000I-40000J0D01*
G01*
X11550000Y-7854000D02*
G75*
G02*
X11630000Y-7854000I40000J0D01*
G01*
X11630000Y-8108000D02*
G75*
G02*
X11550000Y-8108000I-40000J0D01*
G01*
X11550000Y-8108000D02*
G75*
G02*
X11630000Y-8108000I40000J0D01*
G01*
X11630000Y-8362000D02*
G75*
G02*
X11550000Y-8362000I-40000J0D01*
G01*
X11550000Y-8362000D02*
G75*
G02*
X11630000Y-8362000I40000J0D01*
G01*
X11630000Y-8616000D02*
G75*
G02*
X11550000Y-8616000I-40000J0D01*
G01*
X11550000Y-8616000D02*
G75*
G02*
X11630000Y-8616000I40000J0D01*
G01*
X11630000Y-8870000D02*
G75*
G02*
X11550000Y-8870000I-40000J0D01*
G01*
X11550000Y-8870000D02*
G75*
G02*
X11630000Y-8870000I40000J0D01*
G01*
X11630000Y-9124000D02*
G75*
G02*
X11550000Y-9124000I-40000J0D01*
G01*
X11550000Y-9124000D02*
G75*
G02*
X11630000Y-9124000I40000J0D01*
G01*
X11630000Y-9378000D02*
G75*
G02*
X11550000Y-9378000I-40000J0D01*
G01*
X11550000Y-9378000D02*
G75*
G02*
X11630000Y-9378000I40000J0D01*
G01*
X11630000Y-9632000D02*
G75*
G02*
X11550000Y-9632000I-40000J0D01*
G01*
X11550000Y-9632000D02*
G75*
G02*
X11630000Y-9632000I40000J0D01*
G01*
X11630000Y-9886000D02*
G75*
G02*
X11550000Y-9886000I-40000J0D01*
G01*
X11550000Y-9886000D02*
G75*
G02*
X11630000Y-9886000I40000J0D01*
G01*
X11630000Y-10140000D02*
G75*
G02*
X11550000Y-10140000I-40000J0D01*
G01*
X11550000Y-10140000D02*
G75*
G02*
X11630000Y-10140000I40000J0D01*
G01*
X11630000Y-10394000D02*
G75*
G02*
X11550000Y-10394000I-40000J0D01*
G01*
X11550000Y-10394000D02*
G75*
G02*
X11630000Y-10394000I40000J0D01*
G01*
X11630000Y-10648000D02*
G75*
G02*
X11550000Y-10648000I-40000J0D01*
G01*
X11550000Y-10648000D02*
G75*
G02*
X11630000Y-10648000I40000J0D01*
G01*
X11630000Y-10902000D02*
G75*
G02*
X11550000Y-10902000I-40000J0D01*
G01*
X11550000Y-10902000D02*
G75*
G02*
X11630000Y-10902000I40000J0D01*
G01*
X11630000Y-11156000D02*
G75*
G02*
X11550000Y-11156000I-40000J0D01*
G01*
X11550000Y-11156000D02*
G75*
G02*
X11630000Y-11156000I40000J0D01*
G01*
X11630000Y-11410000D02*
G75*
G02*
X11550000Y-11410000I-40000J0D01*
G01*
X11550000Y-11410000D02*
G75*
G02*
X11630000Y-11410000I40000J0D01*
G01*
X11630000Y-11664000D02*
G75*
G02*
X11550000Y-11664000I-40000J0D01*
G01*
X11550000Y-11664000D02*
G75*
G02*
X11630000Y-11664000I40000J0D01*
G01*
X11630000Y-11918000D02*
G75*
G02*
X11550000Y-11918000I-40000J0D01*
G01*
X11550000Y-11918000D02*
G75*
G02*
X11630000Y-11918000I40000J0D01*
G01*
X11630000Y-12172000D02*
G75*
G02*
X11550000Y-12172000I-40000J0D01*
G01*
X11550000Y-12172000D02*
G75*
G02*
X11630000Y-12172000I40000J0D01*
G01*
X5953500Y-9255000D02*
X5953500Y-9345000D01*
X5908500Y-9300000D02*
X5998500Y-9300000D01*
X5953500Y-9955000D02*
X5953500Y-10045000D01*
X5908500Y-10000000D02*
X5998500Y-10000000D01*
X5953500Y-10675000D02*
X5953500Y-10765000D01*
X5908500Y-10720000D02*
X5998500Y-10720000D01*
X6207500Y-9255000D02*
X6207500Y-9345000D01*
X6162500Y-9300000D02*
X6252500Y-9300000D01*
X6207500Y-9955000D02*
X6207500Y-10045000D01*
X6162500Y-10000000D02*
X6252500Y-10000000D01*
X6207500Y-10675000D02*
X6207500Y-10765000D01*
X6162500Y-10720000D02*
X6252500Y-10720000D01*
X5998588Y-11935356D02*
X5998588Y-11864644D01*
X5927877Y-11864644D01*
X5927877Y-11935356D01*
X5998588Y-11935356D01*
X6498588Y-11935356D02*
X6498588Y-11864644D01*
X6427877Y-11864644D01*
X6427877Y-11935356D01*
X6498588Y-11935356D01*
X8585356Y-4735356D02*
X8585356Y-4664644D01*
X8514644Y-4664644D01*
X8514644Y-4735356D01*
X8585356Y-4735356D01*
X9085356Y-4735356D02*
X9085356Y-4664644D01*
X9014644Y-4664644D01*
X9014644Y-4735356D01*
X9085356Y-4735356D01*
D13*
X6142000Y-13360000D02*
X6202000Y-13300000D01*
X6142000Y-13240000D01*
X6082000Y-13300000D01*
X6142000Y-13360000D01*
X6396000Y-13360000D02*
X6456000Y-13300000D01*
X6396000Y-13240000D01*
X6336000Y-13300000D01*
X6396000Y-13360000D01*
X6650000Y-5660000D02*
X6710000Y-5600000D01*
X6650000Y-5540000D01*
X6590000Y-5600000D01*
X6650000Y-5660000D01*
X6650000Y-5914000D02*
X6710000Y-5854000D01*
X6650000Y-5794000D01*
X6590000Y-5854000D01*
X6650000Y-5914000D01*
X6650000Y-6168000D02*
X6710000Y-6108000D01*
X6650000Y-6048000D01*
X6590000Y-6108000D01*
X6650000Y-6168000D01*
X6650000Y-6422000D02*
X6710000Y-6362000D01*
X6650000Y-6302000D01*
X6590000Y-6362000D01*
X6650000Y-6422000D01*
X6650000Y-7460000D02*
X6710000Y-7400000D01*
X6650000Y-7340000D01*
X6590000Y-7400000D01*
X6650000Y-7460000D01*
X6650000Y-7714000D02*
X6710000Y-7654000D01*
X6650000Y-7594000D01*
X6590000Y-7654000D01*
X6650000Y-7714000D01*
X6650000Y-7968000D02*
X6710000Y-7908000D01*
X6650000Y-7848000D01*
X6590000Y-7908000D01*
X6650000Y-7968000D01*
X6650000Y-8222000D02*
X6710000Y-8162000D01*
X6650000Y-8102000D01*
X6590000Y-8162000D01*
X6650000Y-8222000D01*
X6650000Y-13360000D02*
X6710000Y-13300000D01*
X6650000Y-13240000D01*
X6590000Y-13300000D01*
X6650000Y-13360000D01*
X7600000Y-13360000D02*
X7660000Y-13300000D01*
X7600000Y-13240000D01*
X7540000Y-13300000D01*
X7600000Y-13360000D01*
X7854000Y-13360000D02*
X7914000Y-13300000D01*
X7854000Y-13240000D01*
X7794000Y-13300000D01*
X7854000Y-13360000D01*
X8108000Y-13360000D02*
X8168000Y-13300000D01*
X8108000Y-13240000D01*
X8048000Y-13300000D01*
X8108000Y-13360000D01*
X8362000Y-13360000D02*
X8422000Y-13300000D01*
X8362000Y-13240000D01*
X8302000Y-13300000D01*
X8362000Y-13360000D01*
X8616000Y-13360000D02*
X8676000Y-13300000D01*
X8616000Y-13240000D01*
X8556000Y-13300000D01*
X8616000Y-13360000D01*
X11984000Y-13360000D02*
X12044000Y-13300000D01*
X11984000Y-13240000D01*
X11924000Y-13300000D01*
X11984000Y-13360000D01*
X12238000Y-13360000D02*
X12298000Y-13300000D01*
X12238000Y-13240000D01*
X12178000Y-13300000D01*
X12238000Y-13360000D01*
X12492000Y-13360000D02*
X12552000Y-13300000D01*
X12492000Y-13240000D01*
X12432000Y-13300000D01*
X12492000Y-13360000D01*
X12746000Y-13360000D02*
X12806000Y-13300000D01*
X12746000Y-13240000D01*
X12686000Y-13300000D01*
X12746000Y-13360000D01*
X13000000Y-13360000D02*
X13060000Y-13300000D01*
X13000000Y-13240000D01*
X12940000Y-13300000D01*
X13000000Y-13360000D01*
D11*
X5458277Y-15363984D02*
X5458277Y-15163984D01*
X5458277Y-15163984D02*
X5505896Y-15163984D01*
X5505896Y-15163984D02*
X5534467Y-15173508D01*
X5534467Y-15173508D02*
X5553515Y-15192555D01*
X5553515Y-15192555D02*
X5563039Y-15211603D01*
X5563039Y-15211603D02*
X5572563Y-15249698D01*
X5572563Y-15249698D02*
X5572563Y-15278269D01*
X5572563Y-15278269D02*
X5563039Y-15316365D01*
X5563039Y-15316365D02*
X5553515Y-15335412D01*
X5553515Y-15335412D02*
X5534467Y-15354460D01*
X5534467Y-15354460D02*
X5505896Y-15363984D01*
X5505896Y-15363984D02*
X5458277Y-15363984D01*
X5658277Y-15363984D02*
X5658277Y-15230650D01*
X5658277Y-15268746D02*
X5667801Y-15249698D01*
X5667801Y-15249698D02*
X5677324Y-15240174D01*
X5677324Y-15240174D02*
X5696372Y-15230650D01*
X5696372Y-15230650D02*
X5715420Y-15230650D01*
X5782086Y-15363984D02*
X5782086Y-15230650D01*
X5782086Y-15163984D02*
X5772562Y-15173508D01*
X5772562Y-15173508D02*
X5782086Y-15183031D01*
X5782086Y-15183031D02*
X5791610Y-15173508D01*
X5791610Y-15173508D02*
X5782086Y-15163984D01*
X5782086Y-15163984D02*
X5782086Y-15183031D01*
X5905896Y-15363984D02*
X5886848Y-15354460D01*
X5886848Y-15354460D02*
X5877324Y-15335412D01*
X5877324Y-15335412D02*
X5877324Y-15163984D01*
X6010658Y-15363984D02*
X5991610Y-15354460D01*
X5991610Y-15354460D02*
X5982086Y-15335412D01*
X5982086Y-15335412D02*
X5982086Y-15163984D01*
X6239229Y-15363984D02*
X6239229Y-15163984D01*
X6239229Y-15163984D02*
X6305896Y-15306841D01*
X6305896Y-15306841D02*
X6372562Y-15163984D01*
X6372562Y-15163984D02*
X6372562Y-15363984D01*
X6553515Y-15363984D02*
X6553515Y-15259222D01*
X6553515Y-15259222D02*
X6543991Y-15240174D01*
X6543991Y-15240174D02*
X6524943Y-15230650D01*
X6524943Y-15230650D02*
X6486848Y-15230650D01*
X6486848Y-15230650D02*
X6467801Y-15240174D01*
X6553515Y-15354460D02*
X6534467Y-15363984D01*
X6534467Y-15363984D02*
X6486848Y-15363984D01*
X6486848Y-15363984D02*
X6467801Y-15354460D01*
X6467801Y-15354460D02*
X6458277Y-15335412D01*
X6458277Y-15335412D02*
X6458277Y-15316365D01*
X6458277Y-15316365D02*
X6467801Y-15297317D01*
X6467801Y-15297317D02*
X6486848Y-15287793D01*
X6486848Y-15287793D02*
X6534467Y-15287793D01*
X6534467Y-15287793D02*
X6553515Y-15278269D01*
X6648753Y-15230650D02*
X6648753Y-15430650D01*
X6648753Y-15240174D02*
X6667801Y-15230650D01*
X6667801Y-15230650D02*
X6705896Y-15230650D01*
X6705896Y-15230650D02*
X6724943Y-15240174D01*
X6724943Y-15240174D02*
X6734467Y-15249698D01*
X6734467Y-15249698D02*
X6743991Y-15268746D01*
X6743991Y-15268746D02*
X6743991Y-15325888D01*
X6743991Y-15325888D02*
X6734467Y-15344936D01*
X6734467Y-15344936D02*
X6724943Y-15354460D01*
X6724943Y-15354460D02*
X6705896Y-15363984D01*
X6705896Y-15363984D02*
X6667801Y-15363984D01*
X6667801Y-15363984D02*
X6648753Y-15354460D01*
X6829705Y-15344936D02*
X6839229Y-15354460D01*
X6839229Y-15354460D02*
X6829705Y-15363984D01*
X6829705Y-15363984D02*
X6820182Y-15354460D01*
X6820182Y-15354460D02*
X6829705Y-15344936D01*
X6829705Y-15344936D02*
X6829705Y-15363984D01*
X6829705Y-15240174D02*
X6839229Y-15249698D01*
X6839229Y-15249698D02*
X6829705Y-15259222D01*
X6829705Y-15259222D02*
X6820182Y-15249698D01*
X6820182Y-15249698D02*
X6829705Y-15240174D01*
X6829705Y-15240174D02*
X6829705Y-15259222D01*
D12*
X5127500Y-15657500D02*
X5197500Y-15727500D01*
X5197500Y-15657500D02*
X5127500Y-15727500D01*
D11*
X5496372Y-15583984D02*
X5515420Y-15583984D01*
X5515420Y-15583984D02*
X5534467Y-15593508D01*
X5534467Y-15593508D02*
X5543991Y-15603031D01*
X5543991Y-15603031D02*
X5553515Y-15622079D01*
X5553515Y-15622079D02*
X5563039Y-15660174D01*
X5563039Y-15660174D02*
X5563039Y-15707793D01*
X5563039Y-15707793D02*
X5553515Y-15745888D01*
X5553515Y-15745888D02*
X5543991Y-15764936D01*
X5543991Y-15764936D02*
X5534467Y-15774460D01*
X5534467Y-15774460D02*
X5515420Y-15783984D01*
X5515420Y-15783984D02*
X5496372Y-15783984D01*
X5496372Y-15783984D02*
X5477324Y-15774460D01*
X5477324Y-15774460D02*
X5467801Y-15764936D01*
X5467801Y-15764936D02*
X5458277Y-15745888D01*
X5458277Y-15745888D02*
X5448753Y-15707793D01*
X5448753Y-15707793D02*
X5448753Y-15660174D01*
X5448753Y-15660174D02*
X5458277Y-15622079D01*
X5458277Y-15622079D02*
X5467801Y-15603031D01*
X5467801Y-15603031D02*
X5477324Y-15593508D01*
X5477324Y-15593508D02*
X5496372Y-15583984D01*
X5648753Y-15764936D02*
X5658277Y-15774460D01*
X5658277Y-15774460D02*
X5648753Y-15783984D01*
X5648753Y-15783984D02*
X5639229Y-15774460D01*
X5639229Y-15774460D02*
X5648753Y-15764936D01*
X5648753Y-15764936D02*
X5648753Y-15783984D01*
X5724943Y-15583984D02*
X5858277Y-15583984D01*
X5858277Y-15583984D02*
X5772562Y-15783984D01*
X5972562Y-15583984D02*
X5991610Y-15583984D01*
X5991610Y-15583984D02*
X6010658Y-15593508D01*
X6010658Y-15593508D02*
X6020182Y-15603031D01*
X6020182Y-15603031D02*
X6029705Y-15622079D01*
X6029705Y-15622079D02*
X6039229Y-15660174D01*
X6039229Y-15660174D02*
X6039229Y-15707793D01*
X6039229Y-15707793D02*
X6029705Y-15745888D01*
X6029705Y-15745888D02*
X6020182Y-15764936D01*
X6020182Y-15764936D02*
X6010658Y-15774460D01*
X6010658Y-15774460D02*
X5991610Y-15783984D01*
X5991610Y-15783984D02*
X5972562Y-15783984D01*
X5972562Y-15783984D02*
X5953515Y-15774460D01*
X5953515Y-15774460D02*
X5943991Y-15764936D01*
X5943991Y-15764936D02*
X5934467Y-15745888D01*
X5934467Y-15745888D02*
X5924943Y-15707793D01*
X5924943Y-15707793D02*
X5924943Y-15660174D01*
X5924943Y-15660174D02*
X5934467Y-15622079D01*
X5934467Y-15622079D02*
X5943991Y-15603031D01*
X5943991Y-15603031D02*
X5953515Y-15593508D01*
X5953515Y-15593508D02*
X5972562Y-15583984D01*
X6163039Y-15583984D02*
X6182086Y-15583984D01*
X6182086Y-15583984D02*
X6201134Y-15593508D01*
X6201134Y-15593508D02*
X6210658Y-15603031D01*
X6210658Y-15603031D02*
X6220182Y-15622079D01*
X6220182Y-15622079D02*
X6229705Y-15660174D01*
X6229705Y-15660174D02*
X6229705Y-15707793D01*
X6229705Y-15707793D02*
X6220182Y-15745888D01*
X6220182Y-15745888D02*
X6210658Y-15764936D01*
X6210658Y-15764936D02*
X6201134Y-15774460D01*
X6201134Y-15774460D02*
X6182086Y-15783984D01*
X6182086Y-15783984D02*
X6163039Y-15783984D01*
X6163039Y-15783984D02*
X6143991Y-15774460D01*
X6143991Y-15774460D02*
X6134467Y-15764936D01*
X6134467Y-15764936D02*
X6124943Y-15745888D01*
X6124943Y-15745888D02*
X6115420Y-15707793D01*
X6115420Y-15707793D02*
X6115420Y-15660174D01*
X6115420Y-15660174D02*
X6124943Y-15622079D01*
X6124943Y-15622079D02*
X6134467Y-15603031D01*
X6134467Y-15603031D02*
X6143991Y-15593508D01*
X6143991Y-15593508D02*
X6163039Y-15583984D01*
X6315420Y-15783984D02*
X6315420Y-15650650D01*
X6315420Y-15669698D02*
X6324943Y-15660174D01*
X6324943Y-15660174D02*
X6343991Y-15650650D01*
X6343991Y-15650650D02*
X6372563Y-15650650D01*
X6372563Y-15650650D02*
X6391610Y-15660174D01*
X6391610Y-15660174D02*
X6401134Y-15679222D01*
X6401134Y-15679222D02*
X6401134Y-15783984D01*
X6401134Y-15679222D02*
X6410658Y-15660174D01*
X6410658Y-15660174D02*
X6429705Y-15650650D01*
X6429705Y-15650650D02*
X6458277Y-15650650D01*
X6458277Y-15650650D02*
X6477324Y-15660174D01*
X6477324Y-15660174D02*
X6486848Y-15679222D01*
X6486848Y-15679222D02*
X6486848Y-15783984D01*
X6582086Y-15783984D02*
X6582086Y-15650650D01*
X6582086Y-15669698D02*
X6591610Y-15660174D01*
X6591610Y-15660174D02*
X6610658Y-15650650D01*
X6610658Y-15650650D02*
X6639229Y-15650650D01*
X6639229Y-15650650D02*
X6658277Y-15660174D01*
X6658277Y-15660174D02*
X6667801Y-15679222D01*
X6667801Y-15679222D02*
X6667801Y-15783984D01*
X6667801Y-15679222D02*
X6677324Y-15660174D01*
X6677324Y-15660174D02*
X6696372Y-15650650D01*
X6696372Y-15650650D02*
X6724943Y-15650650D01*
X6724943Y-15650650D02*
X6743991Y-15660174D01*
X6743991Y-15660174D02*
X6753515Y-15679222D01*
X6753515Y-15679222D02*
X6753515Y-15783984D01*
X7143991Y-15574460D02*
X6972563Y-15831603D01*
X7401134Y-15583984D02*
X7420182Y-15583984D01*
X7420182Y-15583984D02*
X7439229Y-15593508D01*
X7439229Y-15593508D02*
X7448753Y-15603031D01*
X7448753Y-15603031D02*
X7458277Y-15622079D01*
X7458277Y-15622079D02*
X7467801Y-15660174D01*
X7467801Y-15660174D02*
X7467801Y-15707793D01*
X7467801Y-15707793D02*
X7458277Y-15745888D01*
X7458277Y-15745888D02*
X7448753Y-15764936D01*
X7448753Y-15764936D02*
X7439229Y-15774460D01*
X7439229Y-15774460D02*
X7420182Y-15783984D01*
X7420182Y-15783984D02*
X7401134Y-15783984D01*
X7401134Y-15783984D02*
X7382086Y-15774460D01*
X7382086Y-15774460D02*
X7372563Y-15764936D01*
X7372563Y-15764936D02*
X7363039Y-15745888D01*
X7363039Y-15745888D02*
X7353515Y-15707793D01*
X7353515Y-15707793D02*
X7353515Y-15660174D01*
X7353515Y-15660174D02*
X7363039Y-15622079D01*
X7363039Y-15622079D02*
X7372563Y-15603031D01*
X7372563Y-15603031D02*
X7382086Y-15593508D01*
X7382086Y-15593508D02*
X7401134Y-15583984D01*
X7553515Y-15764936D02*
X7563039Y-15774460D01*
X7563039Y-15774460D02*
X7553515Y-15783984D01*
X7553515Y-15783984D02*
X7543991Y-15774460D01*
X7543991Y-15774460D02*
X7553515Y-15764936D01*
X7553515Y-15764936D02*
X7553515Y-15783984D01*
X7686848Y-15583984D02*
X7705896Y-15583984D01*
X7705896Y-15583984D02*
X7724944Y-15593508D01*
X7724944Y-15593508D02*
X7734467Y-15603031D01*
X7734467Y-15603031D02*
X7743991Y-15622079D01*
X7743991Y-15622079D02*
X7753515Y-15660174D01*
X7753515Y-15660174D02*
X7753515Y-15707793D01*
X7753515Y-15707793D02*
X7743991Y-15745888D01*
X7743991Y-15745888D02*
X7734467Y-15764936D01*
X7734467Y-15764936D02*
X7724944Y-15774460D01*
X7724944Y-15774460D02*
X7705896Y-15783984D01*
X7705896Y-15783984D02*
X7686848Y-15783984D01*
X7686848Y-15783984D02*
X7667801Y-15774460D01*
X7667801Y-15774460D02*
X7658277Y-15764936D01*
X7658277Y-15764936D02*
X7648753Y-15745888D01*
X7648753Y-15745888D02*
X7639229Y-15707793D01*
X7639229Y-15707793D02*
X7639229Y-15660174D01*
X7639229Y-15660174D02*
X7648753Y-15622079D01*
X7648753Y-15622079D02*
X7658277Y-15603031D01*
X7658277Y-15603031D02*
X7667801Y-15593508D01*
X7667801Y-15593508D02*
X7686848Y-15583984D01*
X7829706Y-15603031D02*
X7839229Y-15593508D01*
X7839229Y-15593508D02*
X7858277Y-15583984D01*
X7858277Y-15583984D02*
X7905896Y-15583984D01*
X7905896Y-15583984D02*
X7924944Y-15593508D01*
X7924944Y-15593508D02*
X7934467Y-15603031D01*
X7934467Y-15603031D02*
X7943991Y-15622079D01*
X7943991Y-15622079D02*
X7943991Y-15641127D01*
X7943991Y-15641127D02*
X7934467Y-15669698D01*
X7934467Y-15669698D02*
X7820182Y-15783984D01*
X7820182Y-15783984D02*
X7943991Y-15783984D01*
X8010658Y-15583984D02*
X8143991Y-15583984D01*
X8143991Y-15583984D02*
X8058277Y-15783984D01*
X8305896Y-15583984D02*
X8267801Y-15583984D01*
X8267801Y-15583984D02*
X8248753Y-15593508D01*
X8248753Y-15593508D02*
X8239229Y-15603031D01*
X8239229Y-15603031D02*
X8220182Y-15631603D01*
X8220182Y-15631603D02*
X8210658Y-15669698D01*
X8210658Y-15669698D02*
X8210658Y-15745888D01*
X8210658Y-15745888D02*
X8220182Y-15764936D01*
X8220182Y-15764936D02*
X8229706Y-15774460D01*
X8229706Y-15774460D02*
X8248753Y-15783984D01*
X8248753Y-15783984D02*
X8286848Y-15783984D01*
X8286848Y-15783984D02*
X8305896Y-15774460D01*
X8305896Y-15774460D02*
X8315420Y-15764936D01*
X8315420Y-15764936D02*
X8324944Y-15745888D01*
X8324944Y-15745888D02*
X8324944Y-15698269D01*
X8324944Y-15698269D02*
X8315420Y-15679222D01*
X8315420Y-15679222D02*
X8305896Y-15669698D01*
X8305896Y-15669698D02*
X8286848Y-15660174D01*
X8286848Y-15660174D02*
X8248753Y-15660174D01*
X8248753Y-15660174D02*
X8229706Y-15669698D01*
X8229706Y-15669698D02*
X8220182Y-15679222D01*
X8220182Y-15679222D02*
X8210658Y-15698269D01*
X8401134Y-15583984D02*
X8401134Y-15622079D01*
X8477325Y-15583984D02*
X8477325Y-15622079D01*
X8772563Y-15860174D02*
X8763039Y-15850650D01*
X8763039Y-15850650D02*
X8743991Y-15822079D01*
X8743991Y-15822079D02*
X8734468Y-15803031D01*
X8734468Y-15803031D02*
X8724944Y-15774460D01*
X8724944Y-15774460D02*
X8715420Y-15726841D01*
X8715420Y-15726841D02*
X8715420Y-15688746D01*
X8715420Y-15688746D02*
X8724944Y-15641127D01*
X8724944Y-15641127D02*
X8734468Y-15612555D01*
X8734468Y-15612555D02*
X8743991Y-15593508D01*
X8743991Y-15593508D02*
X8763039Y-15564936D01*
X8763039Y-15564936D02*
X8772563Y-15555412D01*
X8839230Y-15603031D02*
X8848753Y-15593508D01*
X8848753Y-15593508D02*
X8867801Y-15583984D01*
X8867801Y-15583984D02*
X8915420Y-15583984D01*
X8915420Y-15583984D02*
X8934468Y-15593508D01*
X8934468Y-15593508D02*
X8943991Y-15603031D01*
X8943991Y-15603031D02*
X8953515Y-15622079D01*
X8953515Y-15622079D02*
X8953515Y-15641127D01*
X8953515Y-15641127D02*
X8943991Y-15669698D01*
X8943991Y-15669698D02*
X8829706Y-15783984D01*
X8829706Y-15783984D02*
X8953515Y-15783984D01*
X9191611Y-15783984D02*
X9191611Y-15583984D01*
X9277325Y-15783984D02*
X9277325Y-15679222D01*
X9277325Y-15679222D02*
X9267801Y-15660174D01*
X9267801Y-15660174D02*
X9248753Y-15650650D01*
X9248753Y-15650650D02*
X9220182Y-15650650D01*
X9220182Y-15650650D02*
X9201134Y-15660174D01*
X9201134Y-15660174D02*
X9191611Y-15669698D01*
X9401134Y-15783984D02*
X9382087Y-15774460D01*
X9382087Y-15774460D02*
X9372563Y-15764936D01*
X9372563Y-15764936D02*
X9363039Y-15745888D01*
X9363039Y-15745888D02*
X9363039Y-15688746D01*
X9363039Y-15688746D02*
X9372563Y-15669698D01*
X9372563Y-15669698D02*
X9382087Y-15660174D01*
X9382087Y-15660174D02*
X9401134Y-15650650D01*
X9401134Y-15650650D02*
X9429706Y-15650650D01*
X9429706Y-15650650D02*
X9448753Y-15660174D01*
X9448753Y-15660174D02*
X9458277Y-15669698D01*
X9458277Y-15669698D02*
X9467801Y-15688746D01*
X9467801Y-15688746D02*
X9467801Y-15745888D01*
X9467801Y-15745888D02*
X9458277Y-15764936D01*
X9458277Y-15764936D02*
X9448753Y-15774460D01*
X9448753Y-15774460D02*
X9429706Y-15783984D01*
X9429706Y-15783984D02*
X9401134Y-15783984D01*
X9582087Y-15783984D02*
X9563039Y-15774460D01*
X9563039Y-15774460D02*
X9553515Y-15755412D01*
X9553515Y-15755412D02*
X9553515Y-15583984D01*
X9734468Y-15774460D02*
X9715420Y-15783984D01*
X9715420Y-15783984D02*
X9677325Y-15783984D01*
X9677325Y-15783984D02*
X9658277Y-15774460D01*
X9658277Y-15774460D02*
X9648753Y-15755412D01*
X9648753Y-15755412D02*
X9648753Y-15679222D01*
X9648753Y-15679222D02*
X9658277Y-15660174D01*
X9658277Y-15660174D02*
X9677325Y-15650650D01*
X9677325Y-15650650D02*
X9715420Y-15650650D01*
X9715420Y-15650650D02*
X9734468Y-15660174D01*
X9734468Y-15660174D02*
X9743992Y-15679222D01*
X9743992Y-15679222D02*
X9743992Y-15698269D01*
X9743992Y-15698269D02*
X9648753Y-15717317D01*
X9820182Y-15774460D02*
X9839230Y-15783984D01*
X9839230Y-15783984D02*
X9877325Y-15783984D01*
X9877325Y-15783984D02*
X9896373Y-15774460D01*
X9896373Y-15774460D02*
X9905896Y-15755412D01*
X9905896Y-15755412D02*
X9905896Y-15745888D01*
X9905896Y-15745888D02*
X9896373Y-15726841D01*
X9896373Y-15726841D02*
X9877325Y-15717317D01*
X9877325Y-15717317D02*
X9848753Y-15717317D01*
X9848753Y-15717317D02*
X9829706Y-15707793D01*
X9829706Y-15707793D02*
X9820182Y-15688746D01*
X9820182Y-15688746D02*
X9820182Y-15679222D01*
X9820182Y-15679222D02*
X9829706Y-15660174D01*
X9829706Y-15660174D02*
X9848753Y-15650650D01*
X9848753Y-15650650D02*
X9877325Y-15650650D01*
X9877325Y-15650650D02*
X9896373Y-15660174D01*
X9972563Y-15860174D02*
X9982087Y-15850650D01*
X9982087Y-15850650D02*
X10001134Y-15822079D01*
X10001134Y-15822079D02*
X10010658Y-15803031D01*
X10010658Y-15803031D02*
X10020182Y-15774460D01*
X10020182Y-15774460D02*
X10029706Y-15726841D01*
X10029706Y-15726841D02*
X10029706Y-15688746D01*
X10029706Y-15688746D02*
X10020182Y-15641127D01*
X10020182Y-15641127D02*
X10010658Y-15612555D01*
X10010658Y-15612555D02*
X10001134Y-15593508D01*
X10001134Y-15593508D02*
X9982087Y-15564936D01*
X9982087Y-15564936D02*
X9972563Y-15555412D01*
D12*
X5197500Y-15956500D02*
G75*
G02*
X5117500Y-15956500I-40000J0D01*
G01*
X5117500Y-15956500D02*
G75*
G02*
X5197500Y-15956500I40000J0D01*
G01*
D11*
X5496372Y-15847984D02*
X5515420Y-15847984D01*
X5515420Y-15847984D02*
X5534467Y-15857508D01*
X5534467Y-15857508D02*
X5543991Y-15867031D01*
X5543991Y-15867031D02*
X5553515Y-15886079D01*
X5553515Y-15886079D02*
X5563039Y-15924174D01*
X5563039Y-15924174D02*
X5563039Y-15971793D01*
X5563039Y-15971793D02*
X5553515Y-16009888D01*
X5553515Y-16009888D02*
X5543991Y-16028936D01*
X5543991Y-16028936D02*
X5534467Y-16038460D01*
X5534467Y-16038460D02*
X5515420Y-16047984D01*
X5515420Y-16047984D02*
X5496372Y-16047984D01*
X5496372Y-16047984D02*
X5477324Y-16038460D01*
X5477324Y-16038460D02*
X5467801Y-16028936D01*
X5467801Y-16028936D02*
X5458277Y-16009888D01*
X5458277Y-16009888D02*
X5448753Y-15971793D01*
X5448753Y-15971793D02*
X5448753Y-15924174D01*
X5448753Y-15924174D02*
X5458277Y-15886079D01*
X5458277Y-15886079D02*
X5467801Y-15867031D01*
X5467801Y-15867031D02*
X5477324Y-15857508D01*
X5477324Y-15857508D02*
X5496372Y-15847984D01*
X5648753Y-16028936D02*
X5658277Y-16038460D01*
X5658277Y-16038460D02*
X5648753Y-16047984D01*
X5648753Y-16047984D02*
X5639229Y-16038460D01*
X5639229Y-16038460D02*
X5648753Y-16028936D01*
X5648753Y-16028936D02*
X5648753Y-16047984D01*
X5772562Y-15933698D02*
X5753515Y-15924174D01*
X5753515Y-15924174D02*
X5743991Y-15914650D01*
X5743991Y-15914650D02*
X5734467Y-15895603D01*
X5734467Y-15895603D02*
X5734467Y-15886079D01*
X5734467Y-15886079D02*
X5743991Y-15867031D01*
X5743991Y-15867031D02*
X5753515Y-15857508D01*
X5753515Y-15857508D02*
X5772562Y-15847984D01*
X5772562Y-15847984D02*
X5810658Y-15847984D01*
X5810658Y-15847984D02*
X5829705Y-15857508D01*
X5829705Y-15857508D02*
X5839229Y-15867031D01*
X5839229Y-15867031D02*
X5848753Y-15886079D01*
X5848753Y-15886079D02*
X5848753Y-15895603D01*
X5848753Y-15895603D02*
X5839229Y-15914650D01*
X5839229Y-15914650D02*
X5829705Y-15924174D01*
X5829705Y-15924174D02*
X5810658Y-15933698D01*
X5810658Y-15933698D02*
X5772562Y-15933698D01*
X5772562Y-15933698D02*
X5753515Y-15943222D01*
X5753515Y-15943222D02*
X5743991Y-15952746D01*
X5743991Y-15952746D02*
X5734467Y-15971793D01*
X5734467Y-15971793D02*
X5734467Y-16009888D01*
X5734467Y-16009888D02*
X5743991Y-16028936D01*
X5743991Y-16028936D02*
X5753515Y-16038460D01*
X5753515Y-16038460D02*
X5772562Y-16047984D01*
X5772562Y-16047984D02*
X5810658Y-16047984D01*
X5810658Y-16047984D02*
X5829705Y-16038460D01*
X5829705Y-16038460D02*
X5839229Y-16028936D01*
X5839229Y-16028936D02*
X5848753Y-16009888D01*
X5848753Y-16009888D02*
X5848753Y-15971793D01*
X5848753Y-15971793D02*
X5839229Y-15952746D01*
X5839229Y-15952746D02*
X5829705Y-15943222D01*
X5829705Y-15943222D02*
X5810658Y-15933698D01*
X5972562Y-15847984D02*
X5991610Y-15847984D01*
X5991610Y-15847984D02*
X6010658Y-15857508D01*
X6010658Y-15857508D02*
X6020182Y-15867031D01*
X6020182Y-15867031D02*
X6029705Y-15886079D01*
X6029705Y-15886079D02*
X6039229Y-15924174D01*
X6039229Y-15924174D02*
X6039229Y-15971793D01*
X6039229Y-15971793D02*
X6029705Y-16009888D01*
X6029705Y-16009888D02*
X6020182Y-16028936D01*
X6020182Y-16028936D02*
X6010658Y-16038460D01*
X6010658Y-16038460D02*
X5991610Y-16047984D01*
X5991610Y-16047984D02*
X5972562Y-16047984D01*
X5972562Y-16047984D02*
X5953515Y-16038460D01*
X5953515Y-16038460D02*
X5943991Y-16028936D01*
X5943991Y-16028936D02*
X5934467Y-16009888D01*
X5934467Y-16009888D02*
X5924943Y-15971793D01*
X5924943Y-15971793D02*
X5924943Y-15924174D01*
X5924943Y-15924174D02*
X5934467Y-15886079D01*
X5934467Y-15886079D02*
X5943991Y-15867031D01*
X5943991Y-15867031D02*
X5953515Y-15857508D01*
X5953515Y-15857508D02*
X5972562Y-15847984D01*
X6163039Y-15847984D02*
X6182086Y-15847984D01*
X6182086Y-15847984D02*
X6201134Y-15857508D01*
X6201134Y-15857508D02*
X6210658Y-15867031D01*
X6210658Y-15867031D02*
X6220182Y-15886079D01*
X6220182Y-15886079D02*
X6229705Y-15924174D01*
X6229705Y-15924174D02*
X6229705Y-15971793D01*
X6229705Y-15971793D02*
X6220182Y-16009888D01*
X6220182Y-16009888D02*
X6210658Y-16028936D01*
X6210658Y-16028936D02*
X6201134Y-16038460D01*
X6201134Y-16038460D02*
X6182086Y-16047984D01*
X6182086Y-16047984D02*
X6163039Y-16047984D01*
X6163039Y-16047984D02*
X6143991Y-16038460D01*
X6143991Y-16038460D02*
X6134467Y-16028936D01*
X6134467Y-16028936D02*
X6124943Y-16009888D01*
X6124943Y-16009888D02*
X6115420Y-15971793D01*
X6115420Y-15971793D02*
X6115420Y-15924174D01*
X6115420Y-15924174D02*
X6124943Y-15886079D01*
X6124943Y-15886079D02*
X6134467Y-15867031D01*
X6134467Y-15867031D02*
X6143991Y-15857508D01*
X6143991Y-15857508D02*
X6163039Y-15847984D01*
X6315420Y-16047984D02*
X6315420Y-15914650D01*
X6315420Y-15933698D02*
X6324943Y-15924174D01*
X6324943Y-15924174D02*
X6343991Y-15914650D01*
X6343991Y-15914650D02*
X6372563Y-15914650D01*
X6372563Y-15914650D02*
X6391610Y-15924174D01*
X6391610Y-15924174D02*
X6401134Y-15943222D01*
X6401134Y-15943222D02*
X6401134Y-16047984D01*
X6401134Y-15943222D02*
X6410658Y-15924174D01*
X6410658Y-15924174D02*
X6429705Y-15914650D01*
X6429705Y-15914650D02*
X6458277Y-15914650D01*
X6458277Y-15914650D02*
X6477324Y-15924174D01*
X6477324Y-15924174D02*
X6486848Y-15943222D01*
X6486848Y-15943222D02*
X6486848Y-16047984D01*
X6582086Y-16047984D02*
X6582086Y-15914650D01*
X6582086Y-15933698D02*
X6591610Y-15924174D01*
X6591610Y-15924174D02*
X6610658Y-15914650D01*
X6610658Y-15914650D02*
X6639229Y-15914650D01*
X6639229Y-15914650D02*
X6658277Y-15924174D01*
X6658277Y-15924174D02*
X6667801Y-15943222D01*
X6667801Y-15943222D02*
X6667801Y-16047984D01*
X6667801Y-15943222D02*
X6677324Y-15924174D01*
X6677324Y-15924174D02*
X6696372Y-15914650D01*
X6696372Y-15914650D02*
X6724943Y-15914650D01*
X6724943Y-15914650D02*
X6743991Y-15924174D01*
X6743991Y-15924174D02*
X6753515Y-15943222D01*
X6753515Y-15943222D02*
X6753515Y-16047984D01*
X7143991Y-15838460D02*
X6972563Y-16095603D01*
X7401134Y-15847984D02*
X7420182Y-15847984D01*
X7420182Y-15847984D02*
X7439229Y-15857508D01*
X7439229Y-15857508D02*
X7448753Y-15867031D01*
X7448753Y-15867031D02*
X7458277Y-15886079D01*
X7458277Y-15886079D02*
X7467801Y-15924174D01*
X7467801Y-15924174D02*
X7467801Y-15971793D01*
X7467801Y-15971793D02*
X7458277Y-16009888D01*
X7458277Y-16009888D02*
X7448753Y-16028936D01*
X7448753Y-16028936D02*
X7439229Y-16038460D01*
X7439229Y-16038460D02*
X7420182Y-16047984D01*
X7420182Y-16047984D02*
X7401134Y-16047984D01*
X7401134Y-16047984D02*
X7382086Y-16038460D01*
X7382086Y-16038460D02*
X7372563Y-16028936D01*
X7372563Y-16028936D02*
X7363039Y-16009888D01*
X7363039Y-16009888D02*
X7353515Y-15971793D01*
X7353515Y-15971793D02*
X7353515Y-15924174D01*
X7353515Y-15924174D02*
X7363039Y-15886079D01*
X7363039Y-15886079D02*
X7372563Y-15867031D01*
X7372563Y-15867031D02*
X7382086Y-15857508D01*
X7382086Y-15857508D02*
X7401134Y-15847984D01*
X7553515Y-16028936D02*
X7563039Y-16038460D01*
X7563039Y-16038460D02*
X7553515Y-16047984D01*
X7553515Y-16047984D02*
X7543991Y-16038460D01*
X7543991Y-16038460D02*
X7553515Y-16028936D01*
X7553515Y-16028936D02*
X7553515Y-16047984D01*
X7686848Y-15847984D02*
X7705896Y-15847984D01*
X7705896Y-15847984D02*
X7724944Y-15857508D01*
X7724944Y-15857508D02*
X7734467Y-15867031D01*
X7734467Y-15867031D02*
X7743991Y-15886079D01*
X7743991Y-15886079D02*
X7753515Y-15924174D01*
X7753515Y-15924174D02*
X7753515Y-15971793D01*
X7753515Y-15971793D02*
X7743991Y-16009888D01*
X7743991Y-16009888D02*
X7734467Y-16028936D01*
X7734467Y-16028936D02*
X7724944Y-16038460D01*
X7724944Y-16038460D02*
X7705896Y-16047984D01*
X7705896Y-16047984D02*
X7686848Y-16047984D01*
X7686848Y-16047984D02*
X7667801Y-16038460D01*
X7667801Y-16038460D02*
X7658277Y-16028936D01*
X7658277Y-16028936D02*
X7648753Y-16009888D01*
X7648753Y-16009888D02*
X7639229Y-15971793D01*
X7639229Y-15971793D02*
X7639229Y-15924174D01*
X7639229Y-15924174D02*
X7648753Y-15886079D01*
X7648753Y-15886079D02*
X7658277Y-15867031D01*
X7658277Y-15867031D02*
X7667801Y-15857508D01*
X7667801Y-15857508D02*
X7686848Y-15847984D01*
X7820182Y-15847984D02*
X7943991Y-15847984D01*
X7943991Y-15847984D02*
X7877325Y-15924174D01*
X7877325Y-15924174D02*
X7905896Y-15924174D01*
X7905896Y-15924174D02*
X7924944Y-15933698D01*
X7924944Y-15933698D02*
X7934467Y-15943222D01*
X7934467Y-15943222D02*
X7943991Y-15962269D01*
X7943991Y-15962269D02*
X7943991Y-16009888D01*
X7943991Y-16009888D02*
X7934467Y-16028936D01*
X7934467Y-16028936D02*
X7924944Y-16038460D01*
X7924944Y-16038460D02*
X7905896Y-16047984D01*
X7905896Y-16047984D02*
X7848753Y-16047984D01*
X7848753Y-16047984D02*
X7829706Y-16038460D01*
X7829706Y-16038460D02*
X7820182Y-16028936D01*
X8134467Y-16047984D02*
X8020182Y-16047984D01*
X8077325Y-16047984D02*
X8077325Y-15847984D01*
X8077325Y-15847984D02*
X8058277Y-15876555D01*
X8058277Y-15876555D02*
X8039229Y-15895603D01*
X8039229Y-15895603D02*
X8020182Y-15905127D01*
X8315420Y-15847984D02*
X8220182Y-15847984D01*
X8220182Y-15847984D02*
X8210658Y-15943222D01*
X8210658Y-15943222D02*
X8220182Y-15933698D01*
X8220182Y-15933698D02*
X8239229Y-15924174D01*
X8239229Y-15924174D02*
X8286848Y-15924174D01*
X8286848Y-15924174D02*
X8305896Y-15933698D01*
X8305896Y-15933698D02*
X8315420Y-15943222D01*
X8315420Y-15943222D02*
X8324944Y-15962269D01*
X8324944Y-15962269D02*
X8324944Y-16009888D01*
X8324944Y-16009888D02*
X8315420Y-16028936D01*
X8315420Y-16028936D02*
X8305896Y-16038460D01*
X8305896Y-16038460D02*
X8286848Y-16047984D01*
X8286848Y-16047984D02*
X8239229Y-16047984D01*
X8239229Y-16047984D02*
X8220182Y-16038460D01*
X8220182Y-16038460D02*
X8210658Y-16028936D01*
X8401134Y-15847984D02*
X8401134Y-15886079D01*
X8477325Y-15847984D02*
X8477325Y-15886079D01*
X8772563Y-16124174D02*
X8763039Y-16114650D01*
X8763039Y-16114650D02*
X8743991Y-16086079D01*
X8743991Y-16086079D02*
X8734468Y-16067031D01*
X8734468Y-16067031D02*
X8724944Y-16038460D01*
X8724944Y-16038460D02*
X8715420Y-15990841D01*
X8715420Y-15990841D02*
X8715420Y-15952746D01*
X8715420Y-15952746D02*
X8724944Y-15905127D01*
X8724944Y-15905127D02*
X8734468Y-15876555D01*
X8734468Y-15876555D02*
X8743991Y-15857508D01*
X8743991Y-15857508D02*
X8763039Y-15828936D01*
X8763039Y-15828936D02*
X8772563Y-15819412D01*
X8934468Y-15847984D02*
X8896372Y-15847984D01*
X8896372Y-15847984D02*
X8877325Y-15857508D01*
X8877325Y-15857508D02*
X8867801Y-15867031D01*
X8867801Y-15867031D02*
X8848753Y-15895603D01*
X8848753Y-15895603D02*
X8839230Y-15933698D01*
X8839230Y-15933698D02*
X8839230Y-16009888D01*
X8839230Y-16009888D02*
X8848753Y-16028936D01*
X8848753Y-16028936D02*
X8858277Y-16038460D01*
X8858277Y-16038460D02*
X8877325Y-16047984D01*
X8877325Y-16047984D02*
X8915420Y-16047984D01*
X8915420Y-16047984D02*
X8934468Y-16038460D01*
X8934468Y-16038460D02*
X8943991Y-16028936D01*
X8943991Y-16028936D02*
X8953515Y-16009888D01*
X8953515Y-16009888D02*
X8953515Y-15962269D01*
X8953515Y-15962269D02*
X8943991Y-15943222D01*
X8943991Y-15943222D02*
X8934468Y-15933698D01*
X8934468Y-15933698D02*
X8915420Y-15924174D01*
X8915420Y-15924174D02*
X8877325Y-15924174D01*
X8877325Y-15924174D02*
X8858277Y-15933698D01*
X8858277Y-15933698D02*
X8848753Y-15943222D01*
X8848753Y-15943222D02*
X8839230Y-15962269D01*
X9077325Y-15847984D02*
X9096372Y-15847984D01*
X9096372Y-15847984D02*
X9115420Y-15857508D01*
X9115420Y-15857508D02*
X9124944Y-15867031D01*
X9124944Y-15867031D02*
X9134468Y-15886079D01*
X9134468Y-15886079D02*
X9143991Y-15924174D01*
X9143991Y-15924174D02*
X9143991Y-15971793D01*
X9143991Y-15971793D02*
X9134468Y-16009888D01*
X9134468Y-16009888D02*
X9124944Y-16028936D01*
X9124944Y-16028936D02*
X9115420Y-16038460D01*
X9115420Y-16038460D02*
X9096372Y-16047984D01*
X9096372Y-16047984D02*
X9077325Y-16047984D01*
X9077325Y-16047984D02*
X9058277Y-16038460D01*
X9058277Y-16038460D02*
X9048753Y-16028936D01*
X9048753Y-16028936D02*
X9039230Y-16009888D01*
X9039230Y-16009888D02*
X9029706Y-15971793D01*
X9029706Y-15971793D02*
X9029706Y-15924174D01*
X9029706Y-15924174D02*
X9039230Y-15886079D01*
X9039230Y-15886079D02*
X9048753Y-15867031D01*
X9048753Y-15867031D02*
X9058277Y-15857508D01*
X9058277Y-15857508D02*
X9077325Y-15847984D01*
X9382087Y-16047984D02*
X9382087Y-15847984D01*
X9467801Y-16047984D02*
X9467801Y-15943222D01*
X9467801Y-15943222D02*
X9458277Y-15924174D01*
X9458277Y-15924174D02*
X9439230Y-15914650D01*
X9439230Y-15914650D02*
X9410658Y-15914650D01*
X9410658Y-15914650D02*
X9391611Y-15924174D01*
X9391611Y-15924174D02*
X9382087Y-15933698D01*
X9591611Y-16047984D02*
X9572563Y-16038460D01*
X9572563Y-16038460D02*
X9563039Y-16028936D01*
X9563039Y-16028936D02*
X9553515Y-16009888D01*
X9553515Y-16009888D02*
X9553515Y-15952746D01*
X9553515Y-15952746D02*
X9563039Y-15933698D01*
X9563039Y-15933698D02*
X9572563Y-15924174D01*
X9572563Y-15924174D02*
X9591611Y-15914650D01*
X9591611Y-15914650D02*
X9620182Y-15914650D01*
X9620182Y-15914650D02*
X9639230Y-15924174D01*
X9639230Y-15924174D02*
X9648753Y-15933698D01*
X9648753Y-15933698D02*
X9658277Y-15952746D01*
X9658277Y-15952746D02*
X9658277Y-16009888D01*
X9658277Y-16009888D02*
X9648753Y-16028936D01*
X9648753Y-16028936D02*
X9639230Y-16038460D01*
X9639230Y-16038460D02*
X9620182Y-16047984D01*
X9620182Y-16047984D02*
X9591611Y-16047984D01*
X9772563Y-16047984D02*
X9753515Y-16038460D01*
X9753515Y-16038460D02*
X9743992Y-16019412D01*
X9743992Y-16019412D02*
X9743992Y-15847984D01*
X9924944Y-16038460D02*
X9905896Y-16047984D01*
X9905896Y-16047984D02*
X9867801Y-16047984D01*
X9867801Y-16047984D02*
X9848753Y-16038460D01*
X9848753Y-16038460D02*
X9839230Y-16019412D01*
X9839230Y-16019412D02*
X9839230Y-15943222D01*
X9839230Y-15943222D02*
X9848753Y-15924174D01*
X9848753Y-15924174D02*
X9867801Y-15914650D01*
X9867801Y-15914650D02*
X9905896Y-15914650D01*
X9905896Y-15914650D02*
X9924944Y-15924174D01*
X9924944Y-15924174D02*
X9934468Y-15943222D01*
X9934468Y-15943222D02*
X9934468Y-15962269D01*
X9934468Y-15962269D02*
X9839230Y-15981317D01*
X10010658Y-16038460D02*
X10029706Y-16047984D01*
X10029706Y-16047984D02*
X10067801Y-16047984D01*
X10067801Y-16047984D02*
X10086849Y-16038460D01*
X10086849Y-16038460D02*
X10096373Y-16019412D01*
X10096373Y-16019412D02*
X10096373Y-16009888D01*
X10096373Y-16009888D02*
X10086849Y-15990841D01*
X10086849Y-15990841D02*
X10067801Y-15981317D01*
X10067801Y-15981317D02*
X10039230Y-15981317D01*
X10039230Y-15981317D02*
X10020182Y-15971793D01*
X10020182Y-15971793D02*
X10010658Y-15952746D01*
X10010658Y-15952746D02*
X10010658Y-15943222D01*
X10010658Y-15943222D02*
X10020182Y-15924174D01*
X10020182Y-15924174D02*
X10039230Y-15914650D01*
X10039230Y-15914650D02*
X10067801Y-15914650D01*
X10067801Y-15914650D02*
X10086849Y-15924174D01*
X10163039Y-16124174D02*
X10172563Y-16114650D01*
X10172563Y-16114650D02*
X10191611Y-16086079D01*
X10191611Y-16086079D02*
X10201134Y-16067031D01*
X10201134Y-16067031D02*
X10210658Y-16038460D01*
X10210658Y-16038460D02*
X10220182Y-15990841D01*
X10220182Y-15990841D02*
X10220182Y-15952746D01*
X10220182Y-15952746D02*
X10210658Y-15905127D01*
X10210658Y-15905127D02*
X10201134Y-15876555D01*
X10201134Y-15876555D02*
X10191611Y-15857508D01*
X10191611Y-15857508D02*
X10172563Y-15828936D01*
X10172563Y-15828936D02*
X10163039Y-15819412D01*
D12*
X5152500Y-16175500D02*
X5152500Y-16265500D01*
X5107500Y-16220500D02*
X5197500Y-16220500D01*
D11*
X5496372Y-16111984D02*
X5515420Y-16111984D01*
X5515420Y-16111984D02*
X5534467Y-16121508D01*
X5534467Y-16121508D02*
X5543991Y-16131031D01*
X5543991Y-16131031D02*
X5553515Y-16150079D01*
X5553515Y-16150079D02*
X5563039Y-16188174D01*
X5563039Y-16188174D02*
X5563039Y-16235793D01*
X5563039Y-16235793D02*
X5553515Y-16273888D01*
X5553515Y-16273888D02*
X5543991Y-16292936D01*
X5543991Y-16292936D02*
X5534467Y-16302460D01*
X5534467Y-16302460D02*
X5515420Y-16311984D01*
X5515420Y-16311984D02*
X5496372Y-16311984D01*
X5496372Y-16311984D02*
X5477324Y-16302460D01*
X5477324Y-16302460D02*
X5467801Y-16292936D01*
X5467801Y-16292936D02*
X5458277Y-16273888D01*
X5458277Y-16273888D02*
X5448753Y-16235793D01*
X5448753Y-16235793D02*
X5448753Y-16188174D01*
X5448753Y-16188174D02*
X5458277Y-16150079D01*
X5458277Y-16150079D02*
X5467801Y-16131031D01*
X5467801Y-16131031D02*
X5477324Y-16121508D01*
X5477324Y-16121508D02*
X5496372Y-16111984D01*
X5648753Y-16292936D02*
X5658277Y-16302460D01*
X5658277Y-16302460D02*
X5648753Y-16311984D01*
X5648753Y-16311984D02*
X5639229Y-16302460D01*
X5639229Y-16302460D02*
X5648753Y-16292936D01*
X5648753Y-16292936D02*
X5648753Y-16311984D01*
X5753515Y-16311984D02*
X5791610Y-16311984D01*
X5791610Y-16311984D02*
X5810658Y-16302460D01*
X5810658Y-16302460D02*
X5820182Y-16292936D01*
X5820182Y-16292936D02*
X5839229Y-16264365D01*
X5839229Y-16264365D02*
X5848753Y-16226269D01*
X5848753Y-16226269D02*
X5848753Y-16150079D01*
X5848753Y-16150079D02*
X5839229Y-16131031D01*
X5839229Y-16131031D02*
X5829705Y-16121508D01*
X5829705Y-16121508D02*
X5810658Y-16111984D01*
X5810658Y-16111984D02*
X5772562Y-16111984D01*
X5772562Y-16111984D02*
X5753515Y-16121508D01*
X5753515Y-16121508D02*
X5743991Y-16131031D01*
X5743991Y-16131031D02*
X5734467Y-16150079D01*
X5734467Y-16150079D02*
X5734467Y-16197698D01*
X5734467Y-16197698D02*
X5743991Y-16216746D01*
X5743991Y-16216746D02*
X5753515Y-16226269D01*
X5753515Y-16226269D02*
X5772562Y-16235793D01*
X5772562Y-16235793D02*
X5810658Y-16235793D01*
X5810658Y-16235793D02*
X5829705Y-16226269D01*
X5829705Y-16226269D02*
X5839229Y-16216746D01*
X5839229Y-16216746D02*
X5848753Y-16197698D01*
X5972562Y-16111984D02*
X5991610Y-16111984D01*
X5991610Y-16111984D02*
X6010658Y-16121508D01*
X6010658Y-16121508D02*
X6020182Y-16131031D01*
X6020182Y-16131031D02*
X6029705Y-16150079D01*
X6029705Y-16150079D02*
X6039229Y-16188174D01*
X6039229Y-16188174D02*
X6039229Y-16235793D01*
X6039229Y-16235793D02*
X6029705Y-16273888D01*
X6029705Y-16273888D02*
X6020182Y-16292936D01*
X6020182Y-16292936D02*
X6010658Y-16302460D01*
X6010658Y-16302460D02*
X5991610Y-16311984D01*
X5991610Y-16311984D02*
X5972562Y-16311984D01*
X5972562Y-16311984D02*
X5953515Y-16302460D01*
X5953515Y-16302460D02*
X5943991Y-16292936D01*
X5943991Y-16292936D02*
X5934467Y-16273888D01*
X5934467Y-16273888D02*
X5924943Y-16235793D01*
X5924943Y-16235793D02*
X5924943Y-16188174D01*
X5924943Y-16188174D02*
X5934467Y-16150079D01*
X5934467Y-16150079D02*
X5943991Y-16131031D01*
X5943991Y-16131031D02*
X5953515Y-16121508D01*
X5953515Y-16121508D02*
X5972562Y-16111984D01*
X6163039Y-16111984D02*
X6182086Y-16111984D01*
X6182086Y-16111984D02*
X6201134Y-16121508D01*
X6201134Y-16121508D02*
X6210658Y-16131031D01*
X6210658Y-16131031D02*
X6220182Y-16150079D01*
X6220182Y-16150079D02*
X6229705Y-16188174D01*
X6229705Y-16188174D02*
X6229705Y-16235793D01*
X6229705Y-16235793D02*
X6220182Y-16273888D01*
X6220182Y-16273888D02*
X6210658Y-16292936D01*
X6210658Y-16292936D02*
X6201134Y-16302460D01*
X6201134Y-16302460D02*
X6182086Y-16311984D01*
X6182086Y-16311984D02*
X6163039Y-16311984D01*
X6163039Y-16311984D02*
X6143991Y-16302460D01*
X6143991Y-16302460D02*
X6134467Y-16292936D01*
X6134467Y-16292936D02*
X6124943Y-16273888D01*
X6124943Y-16273888D02*
X6115420Y-16235793D01*
X6115420Y-16235793D02*
X6115420Y-16188174D01*
X6115420Y-16188174D02*
X6124943Y-16150079D01*
X6124943Y-16150079D02*
X6134467Y-16131031D01*
X6134467Y-16131031D02*
X6143991Y-16121508D01*
X6143991Y-16121508D02*
X6163039Y-16111984D01*
X6315420Y-16311984D02*
X6315420Y-16178650D01*
X6315420Y-16197698D02*
X6324943Y-16188174D01*
X6324943Y-16188174D02*
X6343991Y-16178650D01*
X6343991Y-16178650D02*
X6372563Y-16178650D01*
X6372563Y-16178650D02*
X6391610Y-16188174D01*
X6391610Y-16188174D02*
X6401134Y-16207222D01*
X6401134Y-16207222D02*
X6401134Y-16311984D01*
X6401134Y-16207222D02*
X6410658Y-16188174D01*
X6410658Y-16188174D02*
X6429705Y-16178650D01*
X6429705Y-16178650D02*
X6458277Y-16178650D01*
X6458277Y-16178650D02*
X6477324Y-16188174D01*
X6477324Y-16188174D02*
X6486848Y-16207222D01*
X6486848Y-16207222D02*
X6486848Y-16311984D01*
X6582086Y-16311984D02*
X6582086Y-16178650D01*
X6582086Y-16197698D02*
X6591610Y-16188174D01*
X6591610Y-16188174D02*
X6610658Y-16178650D01*
X6610658Y-16178650D02*
X6639229Y-16178650D01*
X6639229Y-16178650D02*
X6658277Y-16188174D01*
X6658277Y-16188174D02*
X6667801Y-16207222D01*
X6667801Y-16207222D02*
X6667801Y-16311984D01*
X6667801Y-16207222D02*
X6677324Y-16188174D01*
X6677324Y-16188174D02*
X6696372Y-16178650D01*
X6696372Y-16178650D02*
X6724943Y-16178650D01*
X6724943Y-16178650D02*
X6743991Y-16188174D01*
X6743991Y-16188174D02*
X6753515Y-16207222D01*
X6753515Y-16207222D02*
X6753515Y-16311984D01*
X7143991Y-16102460D02*
X6972563Y-16359603D01*
X7401134Y-16111984D02*
X7420182Y-16111984D01*
X7420182Y-16111984D02*
X7439229Y-16121508D01*
X7439229Y-16121508D02*
X7448753Y-16131031D01*
X7448753Y-16131031D02*
X7458277Y-16150079D01*
X7458277Y-16150079D02*
X7467801Y-16188174D01*
X7467801Y-16188174D02*
X7467801Y-16235793D01*
X7467801Y-16235793D02*
X7458277Y-16273888D01*
X7458277Y-16273888D02*
X7448753Y-16292936D01*
X7448753Y-16292936D02*
X7439229Y-16302460D01*
X7439229Y-16302460D02*
X7420182Y-16311984D01*
X7420182Y-16311984D02*
X7401134Y-16311984D01*
X7401134Y-16311984D02*
X7382086Y-16302460D01*
X7382086Y-16302460D02*
X7372563Y-16292936D01*
X7372563Y-16292936D02*
X7363039Y-16273888D01*
X7363039Y-16273888D02*
X7353515Y-16235793D01*
X7353515Y-16235793D02*
X7353515Y-16188174D01*
X7353515Y-16188174D02*
X7363039Y-16150079D01*
X7363039Y-16150079D02*
X7372563Y-16131031D01*
X7372563Y-16131031D02*
X7382086Y-16121508D01*
X7382086Y-16121508D02*
X7401134Y-16111984D01*
X7553515Y-16292936D02*
X7563039Y-16302460D01*
X7563039Y-16302460D02*
X7553515Y-16311984D01*
X7553515Y-16311984D02*
X7543991Y-16302460D01*
X7543991Y-16302460D02*
X7553515Y-16292936D01*
X7553515Y-16292936D02*
X7553515Y-16311984D01*
X7686848Y-16111984D02*
X7705896Y-16111984D01*
X7705896Y-16111984D02*
X7724944Y-16121508D01*
X7724944Y-16121508D02*
X7734467Y-16131031D01*
X7734467Y-16131031D02*
X7743991Y-16150079D01*
X7743991Y-16150079D02*
X7753515Y-16188174D01*
X7753515Y-16188174D02*
X7753515Y-16235793D01*
X7753515Y-16235793D02*
X7743991Y-16273888D01*
X7743991Y-16273888D02*
X7734467Y-16292936D01*
X7734467Y-16292936D02*
X7724944Y-16302460D01*
X7724944Y-16302460D02*
X7705896Y-16311984D01*
X7705896Y-16311984D02*
X7686848Y-16311984D01*
X7686848Y-16311984D02*
X7667801Y-16302460D01*
X7667801Y-16302460D02*
X7658277Y-16292936D01*
X7658277Y-16292936D02*
X7648753Y-16273888D01*
X7648753Y-16273888D02*
X7639229Y-16235793D01*
X7639229Y-16235793D02*
X7639229Y-16188174D01*
X7639229Y-16188174D02*
X7648753Y-16150079D01*
X7648753Y-16150079D02*
X7658277Y-16131031D01*
X7658277Y-16131031D02*
X7667801Y-16121508D01*
X7667801Y-16121508D02*
X7686848Y-16111984D01*
X7820182Y-16111984D02*
X7943991Y-16111984D01*
X7943991Y-16111984D02*
X7877325Y-16188174D01*
X7877325Y-16188174D02*
X7905896Y-16188174D01*
X7905896Y-16188174D02*
X7924944Y-16197698D01*
X7924944Y-16197698D02*
X7934467Y-16207222D01*
X7934467Y-16207222D02*
X7943991Y-16226269D01*
X7943991Y-16226269D02*
X7943991Y-16273888D01*
X7943991Y-16273888D02*
X7934467Y-16292936D01*
X7934467Y-16292936D02*
X7924944Y-16302460D01*
X7924944Y-16302460D02*
X7905896Y-16311984D01*
X7905896Y-16311984D02*
X7848753Y-16311984D01*
X7848753Y-16311984D02*
X7829706Y-16302460D01*
X7829706Y-16302460D02*
X7820182Y-16292936D01*
X8124944Y-16111984D02*
X8029706Y-16111984D01*
X8029706Y-16111984D02*
X8020182Y-16207222D01*
X8020182Y-16207222D02*
X8029706Y-16197698D01*
X8029706Y-16197698D02*
X8048753Y-16188174D01*
X8048753Y-16188174D02*
X8096372Y-16188174D01*
X8096372Y-16188174D02*
X8115420Y-16197698D01*
X8115420Y-16197698D02*
X8124944Y-16207222D01*
X8124944Y-16207222D02*
X8134467Y-16226269D01*
X8134467Y-16226269D02*
X8134467Y-16273888D01*
X8134467Y-16273888D02*
X8124944Y-16292936D01*
X8124944Y-16292936D02*
X8115420Y-16302460D01*
X8115420Y-16302460D02*
X8096372Y-16311984D01*
X8096372Y-16311984D02*
X8048753Y-16311984D01*
X8048753Y-16311984D02*
X8029706Y-16302460D01*
X8029706Y-16302460D02*
X8020182Y-16292936D01*
X8305896Y-16178650D02*
X8305896Y-16311984D01*
X8258277Y-16102460D02*
X8210658Y-16245317D01*
X8210658Y-16245317D02*
X8334467Y-16245317D01*
X8401134Y-16111984D02*
X8401134Y-16150079D01*
X8477325Y-16111984D02*
X8477325Y-16150079D01*
X8772563Y-16388174D02*
X8763039Y-16378650D01*
X8763039Y-16378650D02*
X8743991Y-16350079D01*
X8743991Y-16350079D02*
X8734468Y-16331031D01*
X8734468Y-16331031D02*
X8724944Y-16302460D01*
X8724944Y-16302460D02*
X8715420Y-16254841D01*
X8715420Y-16254841D02*
X8715420Y-16216746D01*
X8715420Y-16216746D02*
X8724944Y-16169127D01*
X8724944Y-16169127D02*
X8734468Y-16140555D01*
X8734468Y-16140555D02*
X8743991Y-16121508D01*
X8743991Y-16121508D02*
X8763039Y-16092936D01*
X8763039Y-16092936D02*
X8772563Y-16083412D01*
X8934468Y-16111984D02*
X8896372Y-16111984D01*
X8896372Y-16111984D02*
X8877325Y-16121508D01*
X8877325Y-16121508D02*
X8867801Y-16131031D01*
X8867801Y-16131031D02*
X8848753Y-16159603D01*
X8848753Y-16159603D02*
X8839230Y-16197698D01*
X8839230Y-16197698D02*
X8839230Y-16273888D01*
X8839230Y-16273888D02*
X8848753Y-16292936D01*
X8848753Y-16292936D02*
X8858277Y-16302460D01*
X8858277Y-16302460D02*
X8877325Y-16311984D01*
X8877325Y-16311984D02*
X8915420Y-16311984D01*
X8915420Y-16311984D02*
X8934468Y-16302460D01*
X8934468Y-16302460D02*
X8943991Y-16292936D01*
X8943991Y-16292936D02*
X8953515Y-16273888D01*
X8953515Y-16273888D02*
X8953515Y-16226269D01*
X8953515Y-16226269D02*
X8943991Y-16207222D01*
X8943991Y-16207222D02*
X8934468Y-16197698D01*
X8934468Y-16197698D02*
X8915420Y-16188174D01*
X8915420Y-16188174D02*
X8877325Y-16188174D01*
X8877325Y-16188174D02*
X8858277Y-16197698D01*
X8858277Y-16197698D02*
X8848753Y-16207222D01*
X8848753Y-16207222D02*
X8839230Y-16226269D01*
X9191611Y-16311984D02*
X9191611Y-16111984D01*
X9277325Y-16311984D02*
X9277325Y-16207222D01*
X9277325Y-16207222D02*
X9267801Y-16188174D01*
X9267801Y-16188174D02*
X9248753Y-16178650D01*
X9248753Y-16178650D02*
X9220182Y-16178650D01*
X9220182Y-16178650D02*
X9201134Y-16188174D01*
X9201134Y-16188174D02*
X9191611Y-16197698D01*
X9401134Y-16311984D02*
X9382087Y-16302460D01*
X9382087Y-16302460D02*
X9372563Y-16292936D01*
X9372563Y-16292936D02*
X9363039Y-16273888D01*
X9363039Y-16273888D02*
X9363039Y-16216746D01*
X9363039Y-16216746D02*
X9372563Y-16197698D01*
X9372563Y-16197698D02*
X9382087Y-16188174D01*
X9382087Y-16188174D02*
X9401134Y-16178650D01*
X9401134Y-16178650D02*
X9429706Y-16178650D01*
X9429706Y-16178650D02*
X9448753Y-16188174D01*
X9448753Y-16188174D02*
X9458277Y-16197698D01*
X9458277Y-16197698D02*
X9467801Y-16216746D01*
X9467801Y-16216746D02*
X9467801Y-16273888D01*
X9467801Y-16273888D02*
X9458277Y-16292936D01*
X9458277Y-16292936D02*
X9448753Y-16302460D01*
X9448753Y-16302460D02*
X9429706Y-16311984D01*
X9429706Y-16311984D02*
X9401134Y-16311984D01*
X9582087Y-16311984D02*
X9563039Y-16302460D01*
X9563039Y-16302460D02*
X9553515Y-16283412D01*
X9553515Y-16283412D02*
X9553515Y-16111984D01*
X9734468Y-16302460D02*
X9715420Y-16311984D01*
X9715420Y-16311984D02*
X9677325Y-16311984D01*
X9677325Y-16311984D02*
X9658277Y-16302460D01*
X9658277Y-16302460D02*
X9648753Y-16283412D01*
X9648753Y-16283412D02*
X9648753Y-16207222D01*
X9648753Y-16207222D02*
X9658277Y-16188174D01*
X9658277Y-16188174D02*
X9677325Y-16178650D01*
X9677325Y-16178650D02*
X9715420Y-16178650D01*
X9715420Y-16178650D02*
X9734468Y-16188174D01*
X9734468Y-16188174D02*
X9743992Y-16207222D01*
X9743992Y-16207222D02*
X9743992Y-16226269D01*
X9743992Y-16226269D02*
X9648753Y-16245317D01*
X9820182Y-16302460D02*
X9839230Y-16311984D01*
X9839230Y-16311984D02*
X9877325Y-16311984D01*
X9877325Y-16311984D02*
X9896373Y-16302460D01*
X9896373Y-16302460D02*
X9905896Y-16283412D01*
X9905896Y-16283412D02*
X9905896Y-16273888D01*
X9905896Y-16273888D02*
X9896373Y-16254841D01*
X9896373Y-16254841D02*
X9877325Y-16245317D01*
X9877325Y-16245317D02*
X9848753Y-16245317D01*
X9848753Y-16245317D02*
X9829706Y-16235793D01*
X9829706Y-16235793D02*
X9820182Y-16216746D01*
X9820182Y-16216746D02*
X9820182Y-16207222D01*
X9820182Y-16207222D02*
X9829706Y-16188174D01*
X9829706Y-16188174D02*
X9848753Y-16178650D01*
X9848753Y-16178650D02*
X9877325Y-16178650D01*
X9877325Y-16178650D02*
X9896373Y-16188174D01*
X9972563Y-16388174D02*
X9982087Y-16378650D01*
X9982087Y-16378650D02*
X10001134Y-16350079D01*
X10001134Y-16350079D02*
X10010658Y-16331031D01*
X10010658Y-16331031D02*
X10020182Y-16302460D01*
X10020182Y-16302460D02*
X10029706Y-16254841D01*
X10029706Y-16254841D02*
X10029706Y-16216746D01*
X10029706Y-16216746D02*
X10020182Y-16169127D01*
X10020182Y-16169127D02*
X10010658Y-16140555D01*
X10010658Y-16140555D02*
X10001134Y-16121508D01*
X10001134Y-16121508D02*
X9982087Y-16092936D01*
X9982087Y-16092936D02*
X9972563Y-16083412D01*
D12*
X5182856Y-16519856D02*
X5182856Y-16449144D01*
X5112144Y-16449144D01*
X5112144Y-16519856D01*
X5182856Y-16519856D01*
D11*
X5563039Y-16575984D02*
X5448753Y-16575984D01*
X5505896Y-16575984D02*
X5505896Y-16375984D01*
X5505896Y-16375984D02*
X5486848Y-16404555D01*
X5486848Y-16404555D02*
X5467801Y-16423603D01*
X5467801Y-16423603D02*
X5448753Y-16433127D01*
X5648753Y-16556936D02*
X5658277Y-16566460D01*
X5658277Y-16566460D02*
X5648753Y-16575984D01*
X5648753Y-16575984D02*
X5639229Y-16566460D01*
X5639229Y-16566460D02*
X5648753Y-16556936D01*
X5648753Y-16556936D02*
X5648753Y-16575984D01*
X5782086Y-16375984D02*
X5801134Y-16375984D01*
X5801134Y-16375984D02*
X5820182Y-16385508D01*
X5820182Y-16385508D02*
X5829705Y-16395031D01*
X5829705Y-16395031D02*
X5839229Y-16414079D01*
X5839229Y-16414079D02*
X5848753Y-16452174D01*
X5848753Y-16452174D02*
X5848753Y-16499793D01*
X5848753Y-16499793D02*
X5839229Y-16537888D01*
X5839229Y-16537888D02*
X5829705Y-16556936D01*
X5829705Y-16556936D02*
X5820182Y-16566460D01*
X5820182Y-16566460D02*
X5801134Y-16575984D01*
X5801134Y-16575984D02*
X5782086Y-16575984D01*
X5782086Y-16575984D02*
X5763039Y-16566460D01*
X5763039Y-16566460D02*
X5753515Y-16556936D01*
X5753515Y-16556936D02*
X5743991Y-16537888D01*
X5743991Y-16537888D02*
X5734467Y-16499793D01*
X5734467Y-16499793D02*
X5734467Y-16452174D01*
X5734467Y-16452174D02*
X5743991Y-16414079D01*
X5743991Y-16414079D02*
X5753515Y-16395031D01*
X5753515Y-16395031D02*
X5763039Y-16385508D01*
X5763039Y-16385508D02*
X5782086Y-16375984D01*
X5972562Y-16375984D02*
X5991610Y-16375984D01*
X5991610Y-16375984D02*
X6010658Y-16385508D01*
X6010658Y-16385508D02*
X6020182Y-16395031D01*
X6020182Y-16395031D02*
X6029705Y-16414079D01*
X6029705Y-16414079D02*
X6039229Y-16452174D01*
X6039229Y-16452174D02*
X6039229Y-16499793D01*
X6039229Y-16499793D02*
X6029705Y-16537888D01*
X6029705Y-16537888D02*
X6020182Y-16556936D01*
X6020182Y-16556936D02*
X6010658Y-16566460D01*
X6010658Y-16566460D02*
X5991610Y-16575984D01*
X5991610Y-16575984D02*
X5972562Y-16575984D01*
X5972562Y-16575984D02*
X5953515Y-16566460D01*
X5953515Y-16566460D02*
X5943991Y-16556936D01*
X5943991Y-16556936D02*
X5934467Y-16537888D01*
X5934467Y-16537888D02*
X5924943Y-16499793D01*
X5924943Y-16499793D02*
X5924943Y-16452174D01*
X5924943Y-16452174D02*
X5934467Y-16414079D01*
X5934467Y-16414079D02*
X5943991Y-16395031D01*
X5943991Y-16395031D02*
X5953515Y-16385508D01*
X5953515Y-16385508D02*
X5972562Y-16375984D01*
X6163039Y-16375984D02*
X6182086Y-16375984D01*
X6182086Y-16375984D02*
X6201134Y-16385508D01*
X6201134Y-16385508D02*
X6210658Y-16395031D01*
X6210658Y-16395031D02*
X6220182Y-16414079D01*
X6220182Y-16414079D02*
X6229705Y-16452174D01*
X6229705Y-16452174D02*
X6229705Y-16499793D01*
X6229705Y-16499793D02*
X6220182Y-16537888D01*
X6220182Y-16537888D02*
X6210658Y-16556936D01*
X6210658Y-16556936D02*
X6201134Y-16566460D01*
X6201134Y-16566460D02*
X6182086Y-16575984D01*
X6182086Y-16575984D02*
X6163039Y-16575984D01*
X6163039Y-16575984D02*
X6143991Y-16566460D01*
X6143991Y-16566460D02*
X6134467Y-16556936D01*
X6134467Y-16556936D02*
X6124943Y-16537888D01*
X6124943Y-16537888D02*
X6115420Y-16499793D01*
X6115420Y-16499793D02*
X6115420Y-16452174D01*
X6115420Y-16452174D02*
X6124943Y-16414079D01*
X6124943Y-16414079D02*
X6134467Y-16395031D01*
X6134467Y-16395031D02*
X6143991Y-16385508D01*
X6143991Y-16385508D02*
X6163039Y-16375984D01*
X6315420Y-16575984D02*
X6315420Y-16442650D01*
X6315420Y-16461698D02*
X6324943Y-16452174D01*
X6324943Y-16452174D02*
X6343991Y-16442650D01*
X6343991Y-16442650D02*
X6372563Y-16442650D01*
X6372563Y-16442650D02*
X6391610Y-16452174D01*
X6391610Y-16452174D02*
X6401134Y-16471222D01*
X6401134Y-16471222D02*
X6401134Y-16575984D01*
X6401134Y-16471222D02*
X6410658Y-16452174D01*
X6410658Y-16452174D02*
X6429705Y-16442650D01*
X6429705Y-16442650D02*
X6458277Y-16442650D01*
X6458277Y-16442650D02*
X6477324Y-16452174D01*
X6477324Y-16452174D02*
X6486848Y-16471222D01*
X6486848Y-16471222D02*
X6486848Y-16575984D01*
X6582086Y-16575984D02*
X6582086Y-16442650D01*
X6582086Y-16461698D02*
X6591610Y-16452174D01*
X6591610Y-16452174D02*
X6610658Y-16442650D01*
X6610658Y-16442650D02*
X6639229Y-16442650D01*
X6639229Y-16442650D02*
X6658277Y-16452174D01*
X6658277Y-16452174D02*
X6667801Y-16471222D01*
X6667801Y-16471222D02*
X6667801Y-16575984D01*
X6667801Y-16471222D02*
X6677324Y-16452174D01*
X6677324Y-16452174D02*
X6696372Y-16442650D01*
X6696372Y-16442650D02*
X6724943Y-16442650D01*
X6724943Y-16442650D02*
X6743991Y-16452174D01*
X6743991Y-16452174D02*
X6753515Y-16471222D01*
X6753515Y-16471222D02*
X6753515Y-16575984D01*
X7143991Y-16366460D02*
X6972563Y-16623603D01*
X7401134Y-16375984D02*
X7420182Y-16375984D01*
X7420182Y-16375984D02*
X7439229Y-16385508D01*
X7439229Y-16385508D02*
X7448753Y-16395031D01*
X7448753Y-16395031D02*
X7458277Y-16414079D01*
X7458277Y-16414079D02*
X7467801Y-16452174D01*
X7467801Y-16452174D02*
X7467801Y-16499793D01*
X7467801Y-16499793D02*
X7458277Y-16537888D01*
X7458277Y-16537888D02*
X7448753Y-16556936D01*
X7448753Y-16556936D02*
X7439229Y-16566460D01*
X7439229Y-16566460D02*
X7420182Y-16575984D01*
X7420182Y-16575984D02*
X7401134Y-16575984D01*
X7401134Y-16575984D02*
X7382086Y-16566460D01*
X7382086Y-16566460D02*
X7372563Y-16556936D01*
X7372563Y-16556936D02*
X7363039Y-16537888D01*
X7363039Y-16537888D02*
X7353515Y-16499793D01*
X7353515Y-16499793D02*
X7353515Y-16452174D01*
X7353515Y-16452174D02*
X7363039Y-16414079D01*
X7363039Y-16414079D02*
X7372563Y-16395031D01*
X7372563Y-16395031D02*
X7382086Y-16385508D01*
X7382086Y-16385508D02*
X7401134Y-16375984D01*
X7553515Y-16556936D02*
X7563039Y-16566460D01*
X7563039Y-16566460D02*
X7553515Y-16575984D01*
X7553515Y-16575984D02*
X7543991Y-16566460D01*
X7543991Y-16566460D02*
X7553515Y-16556936D01*
X7553515Y-16556936D02*
X7553515Y-16575984D01*
X7686848Y-16375984D02*
X7705896Y-16375984D01*
X7705896Y-16375984D02*
X7724944Y-16385508D01*
X7724944Y-16385508D02*
X7734467Y-16395031D01*
X7734467Y-16395031D02*
X7743991Y-16414079D01*
X7743991Y-16414079D02*
X7753515Y-16452174D01*
X7753515Y-16452174D02*
X7753515Y-16499793D01*
X7753515Y-16499793D02*
X7743991Y-16537888D01*
X7743991Y-16537888D02*
X7734467Y-16556936D01*
X7734467Y-16556936D02*
X7724944Y-16566460D01*
X7724944Y-16566460D02*
X7705896Y-16575984D01*
X7705896Y-16575984D02*
X7686848Y-16575984D01*
X7686848Y-16575984D02*
X7667801Y-16566460D01*
X7667801Y-16566460D02*
X7658277Y-16556936D01*
X7658277Y-16556936D02*
X7648753Y-16537888D01*
X7648753Y-16537888D02*
X7639229Y-16499793D01*
X7639229Y-16499793D02*
X7639229Y-16452174D01*
X7639229Y-16452174D02*
X7648753Y-16414079D01*
X7648753Y-16414079D02*
X7658277Y-16395031D01*
X7658277Y-16395031D02*
X7667801Y-16385508D01*
X7667801Y-16385508D02*
X7686848Y-16375984D01*
X7820182Y-16375984D02*
X7943991Y-16375984D01*
X7943991Y-16375984D02*
X7877325Y-16452174D01*
X7877325Y-16452174D02*
X7905896Y-16452174D01*
X7905896Y-16452174D02*
X7924944Y-16461698D01*
X7924944Y-16461698D02*
X7934467Y-16471222D01*
X7934467Y-16471222D02*
X7943991Y-16490269D01*
X7943991Y-16490269D02*
X7943991Y-16537888D01*
X7943991Y-16537888D02*
X7934467Y-16556936D01*
X7934467Y-16556936D02*
X7924944Y-16566460D01*
X7924944Y-16566460D02*
X7905896Y-16575984D01*
X7905896Y-16575984D02*
X7848753Y-16575984D01*
X7848753Y-16575984D02*
X7829706Y-16566460D01*
X7829706Y-16566460D02*
X7820182Y-16556936D01*
X8039229Y-16575984D02*
X8077325Y-16575984D01*
X8077325Y-16575984D02*
X8096372Y-16566460D01*
X8096372Y-16566460D02*
X8105896Y-16556936D01*
X8105896Y-16556936D02*
X8124944Y-16528365D01*
X8124944Y-16528365D02*
X8134467Y-16490269D01*
X8134467Y-16490269D02*
X8134467Y-16414079D01*
X8134467Y-16414079D02*
X8124944Y-16395031D01*
X8124944Y-16395031D02*
X8115420Y-16385508D01*
X8115420Y-16385508D02*
X8096372Y-16375984D01*
X8096372Y-16375984D02*
X8058277Y-16375984D01*
X8058277Y-16375984D02*
X8039229Y-16385508D01*
X8039229Y-16385508D02*
X8029706Y-16395031D01*
X8029706Y-16395031D02*
X8020182Y-16414079D01*
X8020182Y-16414079D02*
X8020182Y-16461698D01*
X8020182Y-16461698D02*
X8029706Y-16480746D01*
X8029706Y-16480746D02*
X8039229Y-16490269D01*
X8039229Y-16490269D02*
X8058277Y-16499793D01*
X8058277Y-16499793D02*
X8096372Y-16499793D01*
X8096372Y-16499793D02*
X8115420Y-16490269D01*
X8115420Y-16490269D02*
X8124944Y-16480746D01*
X8124944Y-16480746D02*
X8134467Y-16461698D01*
X8305896Y-16442650D02*
X8305896Y-16575984D01*
X8258277Y-16366460D02*
X8210658Y-16509317D01*
X8210658Y-16509317D02*
X8334467Y-16509317D01*
X8401134Y-16375984D02*
X8401134Y-16414079D01*
X8477325Y-16375984D02*
X8477325Y-16414079D01*
X8772563Y-16652174D02*
X8763039Y-16642650D01*
X8763039Y-16642650D02*
X8743991Y-16614079D01*
X8743991Y-16614079D02*
X8734468Y-16595031D01*
X8734468Y-16595031D02*
X8724944Y-16566460D01*
X8724944Y-16566460D02*
X8715420Y-16518841D01*
X8715420Y-16518841D02*
X8715420Y-16480746D01*
X8715420Y-16480746D02*
X8724944Y-16433127D01*
X8724944Y-16433127D02*
X8734468Y-16404555D01*
X8734468Y-16404555D02*
X8743991Y-16385508D01*
X8743991Y-16385508D02*
X8763039Y-16356936D01*
X8763039Y-16356936D02*
X8772563Y-16347412D01*
X8934468Y-16442650D02*
X8934468Y-16575984D01*
X8886849Y-16366460D02*
X8839230Y-16509317D01*
X8839230Y-16509317D02*
X8963039Y-16509317D01*
X9191611Y-16575984D02*
X9191611Y-16375984D01*
X9277325Y-16575984D02*
X9277325Y-16471222D01*
X9277325Y-16471222D02*
X9267801Y-16452174D01*
X9267801Y-16452174D02*
X9248753Y-16442650D01*
X9248753Y-16442650D02*
X9220182Y-16442650D01*
X9220182Y-16442650D02*
X9201134Y-16452174D01*
X9201134Y-16452174D02*
X9191611Y-16461698D01*
X9401134Y-16575984D02*
X9382087Y-16566460D01*
X9382087Y-16566460D02*
X9372563Y-16556936D01*
X9372563Y-16556936D02*
X9363039Y-16537888D01*
X9363039Y-16537888D02*
X9363039Y-16480746D01*
X9363039Y-16480746D02*
X9372563Y-16461698D01*
X9372563Y-16461698D02*
X9382087Y-16452174D01*
X9382087Y-16452174D02*
X9401134Y-16442650D01*
X9401134Y-16442650D02*
X9429706Y-16442650D01*
X9429706Y-16442650D02*
X9448753Y-16452174D01*
X9448753Y-16452174D02*
X9458277Y-16461698D01*
X9458277Y-16461698D02*
X9467801Y-16480746D01*
X9467801Y-16480746D02*
X9467801Y-16537888D01*
X9467801Y-16537888D02*
X9458277Y-16556936D01*
X9458277Y-16556936D02*
X9448753Y-16566460D01*
X9448753Y-16566460D02*
X9429706Y-16575984D01*
X9429706Y-16575984D02*
X9401134Y-16575984D01*
X9582087Y-16575984D02*
X9563039Y-16566460D01*
X9563039Y-16566460D02*
X9553515Y-16547412D01*
X9553515Y-16547412D02*
X9553515Y-16375984D01*
X9734468Y-16566460D02*
X9715420Y-16575984D01*
X9715420Y-16575984D02*
X9677325Y-16575984D01*
X9677325Y-16575984D02*
X9658277Y-16566460D01*
X9658277Y-16566460D02*
X9648753Y-16547412D01*
X9648753Y-16547412D02*
X9648753Y-16471222D01*
X9648753Y-16471222D02*
X9658277Y-16452174D01*
X9658277Y-16452174D02*
X9677325Y-16442650D01*
X9677325Y-16442650D02*
X9715420Y-16442650D01*
X9715420Y-16442650D02*
X9734468Y-16452174D01*
X9734468Y-16452174D02*
X9743992Y-16471222D01*
X9743992Y-16471222D02*
X9743992Y-16490269D01*
X9743992Y-16490269D02*
X9648753Y-16509317D01*
X9820182Y-16566460D02*
X9839230Y-16575984D01*
X9839230Y-16575984D02*
X9877325Y-16575984D01*
X9877325Y-16575984D02*
X9896373Y-16566460D01*
X9896373Y-16566460D02*
X9905896Y-16547412D01*
X9905896Y-16547412D02*
X9905896Y-16537888D01*
X9905896Y-16537888D02*
X9896373Y-16518841D01*
X9896373Y-16518841D02*
X9877325Y-16509317D01*
X9877325Y-16509317D02*
X9848753Y-16509317D01*
X9848753Y-16509317D02*
X9829706Y-16499793D01*
X9829706Y-16499793D02*
X9820182Y-16480746D01*
X9820182Y-16480746D02*
X9820182Y-16471222D01*
X9820182Y-16471222D02*
X9829706Y-16452174D01*
X9829706Y-16452174D02*
X9848753Y-16442650D01*
X9848753Y-16442650D02*
X9877325Y-16442650D01*
X9877325Y-16442650D02*
X9896373Y-16452174D01*
X9972563Y-16652174D02*
X9982087Y-16642650D01*
X9982087Y-16642650D02*
X10001134Y-16614079D01*
X10001134Y-16614079D02*
X10010658Y-16595031D01*
X10010658Y-16595031D02*
X10020182Y-16566460D01*
X10020182Y-16566460D02*
X10029706Y-16518841D01*
X10029706Y-16518841D02*
X10029706Y-16480746D01*
X10029706Y-16480746D02*
X10020182Y-16433127D01*
X10020182Y-16433127D02*
X10010658Y-16404555D01*
X10010658Y-16404555D02*
X10001134Y-16385508D01*
X10001134Y-16385508D02*
X9982087Y-16356936D01*
X9982087Y-16356936D02*
X9972563Y-16347412D01*
D13*
X5137500Y-16808500D02*
X5197500Y-16748500D01*
X5137500Y-16688500D01*
X5077500Y-16748500D01*
X5137500Y-16808500D01*
D11*
X5563039Y-16839984D02*
X5448753Y-16839984D01*
X5505896Y-16839984D02*
X5505896Y-16639984D01*
X5505896Y-16639984D02*
X5486848Y-16668555D01*
X5486848Y-16668555D02*
X5467801Y-16687603D01*
X5467801Y-16687603D02*
X5448753Y-16697127D01*
X5648753Y-16820936D02*
X5658277Y-16830460D01*
X5658277Y-16830460D02*
X5648753Y-16839984D01*
X5648753Y-16839984D02*
X5639229Y-16830460D01*
X5639229Y-16830460D02*
X5648753Y-16820936D01*
X5648753Y-16820936D02*
X5648753Y-16839984D01*
X5734467Y-16659031D02*
X5743991Y-16649508D01*
X5743991Y-16649508D02*
X5763039Y-16639984D01*
X5763039Y-16639984D02*
X5810658Y-16639984D01*
X5810658Y-16639984D02*
X5829705Y-16649508D01*
X5829705Y-16649508D02*
X5839229Y-16659031D01*
X5839229Y-16659031D02*
X5848753Y-16678079D01*
X5848753Y-16678079D02*
X5848753Y-16697127D01*
X5848753Y-16697127D02*
X5839229Y-16725698D01*
X5839229Y-16725698D02*
X5724943Y-16839984D01*
X5724943Y-16839984D02*
X5848753Y-16839984D01*
X5972562Y-16639984D02*
X5991610Y-16639984D01*
X5991610Y-16639984D02*
X6010658Y-16649508D01*
X6010658Y-16649508D02*
X6020182Y-16659031D01*
X6020182Y-16659031D02*
X6029705Y-16678079D01*
X6029705Y-16678079D02*
X6039229Y-16716174D01*
X6039229Y-16716174D02*
X6039229Y-16763793D01*
X6039229Y-16763793D02*
X6029705Y-16801889D01*
X6029705Y-16801889D02*
X6020182Y-16820936D01*
X6020182Y-16820936D02*
X6010658Y-16830460D01*
X6010658Y-16830460D02*
X5991610Y-16839984D01*
X5991610Y-16839984D02*
X5972562Y-16839984D01*
X5972562Y-16839984D02*
X5953515Y-16830460D01*
X5953515Y-16830460D02*
X5943991Y-16820936D01*
X5943991Y-16820936D02*
X5934467Y-16801889D01*
X5934467Y-16801889D02*
X5924943Y-16763793D01*
X5924943Y-16763793D02*
X5924943Y-16716174D01*
X5924943Y-16716174D02*
X5934467Y-16678079D01*
X5934467Y-16678079D02*
X5943991Y-16659031D01*
X5943991Y-16659031D02*
X5953515Y-16649508D01*
X5953515Y-16649508D02*
X5972562Y-16639984D01*
X6163039Y-16639984D02*
X6182086Y-16639984D01*
X6182086Y-16639984D02*
X6201134Y-16649508D01*
X6201134Y-16649508D02*
X6210658Y-16659031D01*
X6210658Y-16659031D02*
X6220182Y-16678079D01*
X6220182Y-16678079D02*
X6229705Y-16716174D01*
X6229705Y-16716174D02*
X6229705Y-16763793D01*
X6229705Y-16763793D02*
X6220182Y-16801889D01*
X6220182Y-16801889D02*
X6210658Y-16820936D01*
X6210658Y-16820936D02*
X6201134Y-16830460D01*
X6201134Y-16830460D02*
X6182086Y-16839984D01*
X6182086Y-16839984D02*
X6163039Y-16839984D01*
X6163039Y-16839984D02*
X6143991Y-16830460D01*
X6143991Y-16830460D02*
X6134467Y-16820936D01*
X6134467Y-16820936D02*
X6124943Y-16801889D01*
X6124943Y-16801889D02*
X6115420Y-16763793D01*
X6115420Y-16763793D02*
X6115420Y-16716174D01*
X6115420Y-16716174D02*
X6124943Y-16678079D01*
X6124943Y-16678079D02*
X6134467Y-16659031D01*
X6134467Y-16659031D02*
X6143991Y-16649508D01*
X6143991Y-16649508D02*
X6163039Y-16639984D01*
X6315420Y-16839984D02*
X6315420Y-16706650D01*
X6315420Y-16725698D02*
X6324943Y-16716174D01*
X6324943Y-16716174D02*
X6343991Y-16706650D01*
X6343991Y-16706650D02*
X6372563Y-16706650D01*
X6372563Y-16706650D02*
X6391610Y-16716174D01*
X6391610Y-16716174D02*
X6401134Y-16735222D01*
X6401134Y-16735222D02*
X6401134Y-16839984D01*
X6401134Y-16735222D02*
X6410658Y-16716174D01*
X6410658Y-16716174D02*
X6429705Y-16706650D01*
X6429705Y-16706650D02*
X6458277Y-16706650D01*
X6458277Y-16706650D02*
X6477324Y-16716174D01*
X6477324Y-16716174D02*
X6486848Y-16735222D01*
X6486848Y-16735222D02*
X6486848Y-16839984D01*
X6582086Y-16839984D02*
X6582086Y-16706650D01*
X6582086Y-16725698D02*
X6591610Y-16716174D01*
X6591610Y-16716174D02*
X6610658Y-16706650D01*
X6610658Y-16706650D02*
X6639229Y-16706650D01*
X6639229Y-16706650D02*
X6658277Y-16716174D01*
X6658277Y-16716174D02*
X6667801Y-16735222D01*
X6667801Y-16735222D02*
X6667801Y-16839984D01*
X6667801Y-16735222D02*
X6677324Y-16716174D01*
X6677324Y-16716174D02*
X6696372Y-16706650D01*
X6696372Y-16706650D02*
X6724943Y-16706650D01*
X6724943Y-16706650D02*
X6743991Y-16716174D01*
X6743991Y-16716174D02*
X6753515Y-16735222D01*
X6753515Y-16735222D02*
X6753515Y-16839984D01*
X7143991Y-16630460D02*
X6972563Y-16887603D01*
X7401134Y-16639984D02*
X7420182Y-16639984D01*
X7420182Y-16639984D02*
X7439229Y-16649508D01*
X7439229Y-16649508D02*
X7448753Y-16659031D01*
X7448753Y-16659031D02*
X7458277Y-16678079D01*
X7458277Y-16678079D02*
X7467801Y-16716174D01*
X7467801Y-16716174D02*
X7467801Y-16763793D01*
X7467801Y-16763793D02*
X7458277Y-16801889D01*
X7458277Y-16801889D02*
X7448753Y-16820936D01*
X7448753Y-16820936D02*
X7439229Y-16830460D01*
X7439229Y-16830460D02*
X7420182Y-16839984D01*
X7420182Y-16839984D02*
X7401134Y-16839984D01*
X7401134Y-16839984D02*
X7382086Y-16830460D01*
X7382086Y-16830460D02*
X7372563Y-16820936D01*
X7372563Y-16820936D02*
X7363039Y-16801889D01*
X7363039Y-16801889D02*
X7353515Y-16763793D01*
X7353515Y-16763793D02*
X7353515Y-16716174D01*
X7353515Y-16716174D02*
X7363039Y-16678079D01*
X7363039Y-16678079D02*
X7372563Y-16659031D01*
X7372563Y-16659031D02*
X7382086Y-16649508D01*
X7382086Y-16649508D02*
X7401134Y-16639984D01*
X7553515Y-16820936D02*
X7563039Y-16830460D01*
X7563039Y-16830460D02*
X7553515Y-16839984D01*
X7553515Y-16839984D02*
X7543991Y-16830460D01*
X7543991Y-16830460D02*
X7553515Y-16820936D01*
X7553515Y-16820936D02*
X7553515Y-16839984D01*
X7686848Y-16639984D02*
X7705896Y-16639984D01*
X7705896Y-16639984D02*
X7724944Y-16649508D01*
X7724944Y-16649508D02*
X7734467Y-16659031D01*
X7734467Y-16659031D02*
X7743991Y-16678079D01*
X7743991Y-16678079D02*
X7753515Y-16716174D01*
X7753515Y-16716174D02*
X7753515Y-16763793D01*
X7753515Y-16763793D02*
X7743991Y-16801889D01*
X7743991Y-16801889D02*
X7734467Y-16820936D01*
X7734467Y-16820936D02*
X7724944Y-16830460D01*
X7724944Y-16830460D02*
X7705896Y-16839984D01*
X7705896Y-16839984D02*
X7686848Y-16839984D01*
X7686848Y-16839984D02*
X7667801Y-16830460D01*
X7667801Y-16830460D02*
X7658277Y-16820936D01*
X7658277Y-16820936D02*
X7648753Y-16801889D01*
X7648753Y-16801889D02*
X7639229Y-16763793D01*
X7639229Y-16763793D02*
X7639229Y-16716174D01*
X7639229Y-16716174D02*
X7648753Y-16678079D01*
X7648753Y-16678079D02*
X7658277Y-16659031D01*
X7658277Y-16659031D02*
X7667801Y-16649508D01*
X7667801Y-16649508D02*
X7686848Y-16639984D01*
X7924944Y-16706650D02*
X7924944Y-16839984D01*
X7877325Y-16630460D02*
X7829706Y-16773317D01*
X7829706Y-16773317D02*
X7953515Y-16773317D01*
X8010658Y-16639984D02*
X8143991Y-16639984D01*
X8143991Y-16639984D02*
X8058277Y-16839984D01*
X8210658Y-16659031D02*
X8220182Y-16649508D01*
X8220182Y-16649508D02*
X8239229Y-16639984D01*
X8239229Y-16639984D02*
X8286848Y-16639984D01*
X8286848Y-16639984D02*
X8305896Y-16649508D01*
X8305896Y-16649508D02*
X8315420Y-16659031D01*
X8315420Y-16659031D02*
X8324944Y-16678079D01*
X8324944Y-16678079D02*
X8324944Y-16697127D01*
X8324944Y-16697127D02*
X8315420Y-16725698D01*
X8315420Y-16725698D02*
X8201134Y-16839984D01*
X8201134Y-16839984D02*
X8324944Y-16839984D01*
X8401134Y-16639984D02*
X8401134Y-16678079D01*
X8477325Y-16639984D02*
X8477325Y-16678079D01*
X8772563Y-16916174D02*
X8763039Y-16906650D01*
X8763039Y-16906650D02*
X8743991Y-16878079D01*
X8743991Y-16878079D02*
X8734468Y-16859031D01*
X8734468Y-16859031D02*
X8724944Y-16830460D01*
X8724944Y-16830460D02*
X8715420Y-16782841D01*
X8715420Y-16782841D02*
X8715420Y-16744746D01*
X8715420Y-16744746D02*
X8724944Y-16697127D01*
X8724944Y-16697127D02*
X8734468Y-16668555D01*
X8734468Y-16668555D02*
X8743991Y-16649508D01*
X8743991Y-16649508D02*
X8763039Y-16620936D01*
X8763039Y-16620936D02*
X8772563Y-16611412D01*
X8839230Y-16659031D02*
X8848753Y-16649508D01*
X8848753Y-16649508D02*
X8867801Y-16639984D01*
X8867801Y-16639984D02*
X8915420Y-16639984D01*
X8915420Y-16639984D02*
X8934468Y-16649508D01*
X8934468Y-16649508D02*
X8943991Y-16659031D01*
X8943991Y-16659031D02*
X8953515Y-16678079D01*
X8953515Y-16678079D02*
X8953515Y-16697127D01*
X8953515Y-16697127D02*
X8943991Y-16725698D01*
X8943991Y-16725698D02*
X8829706Y-16839984D01*
X8829706Y-16839984D02*
X8953515Y-16839984D01*
X9143991Y-16839984D02*
X9029706Y-16839984D01*
X9086849Y-16839984D02*
X9086849Y-16639984D01*
X9086849Y-16639984D02*
X9067801Y-16668555D01*
X9067801Y-16668555D02*
X9048753Y-16687603D01*
X9048753Y-16687603D02*
X9029706Y-16697127D01*
X9382087Y-16839984D02*
X9382087Y-16639984D01*
X9467801Y-16839984D02*
X9467801Y-16735222D01*
X9467801Y-16735222D02*
X9458277Y-16716174D01*
X9458277Y-16716174D02*
X9439230Y-16706650D01*
X9439230Y-16706650D02*
X9410658Y-16706650D01*
X9410658Y-16706650D02*
X9391611Y-16716174D01*
X9391611Y-16716174D02*
X9382087Y-16725698D01*
X9591611Y-16839984D02*
X9572563Y-16830460D01*
X9572563Y-16830460D02*
X9563039Y-16820936D01*
X9563039Y-16820936D02*
X9553515Y-16801889D01*
X9553515Y-16801889D02*
X9553515Y-16744746D01*
X9553515Y-16744746D02*
X9563039Y-16725698D01*
X9563039Y-16725698D02*
X9572563Y-16716174D01*
X9572563Y-16716174D02*
X9591611Y-16706650D01*
X9591611Y-16706650D02*
X9620182Y-16706650D01*
X9620182Y-16706650D02*
X9639230Y-16716174D01*
X9639230Y-16716174D02*
X9648753Y-16725698D01*
X9648753Y-16725698D02*
X9658277Y-16744746D01*
X9658277Y-16744746D02*
X9658277Y-16801889D01*
X9658277Y-16801889D02*
X9648753Y-16820936D01*
X9648753Y-16820936D02*
X9639230Y-16830460D01*
X9639230Y-16830460D02*
X9620182Y-16839984D01*
X9620182Y-16839984D02*
X9591611Y-16839984D01*
X9772563Y-16839984D02*
X9753515Y-16830460D01*
X9753515Y-16830460D02*
X9743992Y-16811412D01*
X9743992Y-16811412D02*
X9743992Y-16639984D01*
X9924944Y-16830460D02*
X9905896Y-16839984D01*
X9905896Y-16839984D02*
X9867801Y-16839984D01*
X9867801Y-16839984D02*
X9848753Y-16830460D01*
X9848753Y-16830460D02*
X9839230Y-16811412D01*
X9839230Y-16811412D02*
X9839230Y-16735222D01*
X9839230Y-16735222D02*
X9848753Y-16716174D01*
X9848753Y-16716174D02*
X9867801Y-16706650D01*
X9867801Y-16706650D02*
X9905896Y-16706650D01*
X9905896Y-16706650D02*
X9924944Y-16716174D01*
X9924944Y-16716174D02*
X9934468Y-16735222D01*
X9934468Y-16735222D02*
X9934468Y-16754269D01*
X9934468Y-16754269D02*
X9839230Y-16773317D01*
X10010658Y-16830460D02*
X10029706Y-16839984D01*
X10029706Y-16839984D02*
X10067801Y-16839984D01*
X10067801Y-16839984D02*
X10086849Y-16830460D01*
X10086849Y-16830460D02*
X10096373Y-16811412D01*
X10096373Y-16811412D02*
X10096373Y-16801889D01*
X10096373Y-16801889D02*
X10086849Y-16782841D01*
X10086849Y-16782841D02*
X10067801Y-16773317D01*
X10067801Y-16773317D02*
X10039230Y-16773317D01*
X10039230Y-16773317D02*
X10020182Y-16763793D01*
X10020182Y-16763793D02*
X10010658Y-16744746D01*
X10010658Y-16744746D02*
X10010658Y-16735222D01*
X10010658Y-16735222D02*
X10020182Y-16716174D01*
X10020182Y-16716174D02*
X10039230Y-16706650D01*
X10039230Y-16706650D02*
X10067801Y-16706650D01*
X10067801Y-16706650D02*
X10086849Y-16716174D01*
X10163039Y-16916174D02*
X10172563Y-16906650D01*
X10172563Y-16906650D02*
X10191611Y-16878079D01*
X10191611Y-16878079D02*
X10201134Y-16859031D01*
X10201134Y-16859031D02*
X10210658Y-16830460D01*
X10210658Y-16830460D02*
X10220182Y-16782841D01*
X10220182Y-16782841D02*
X10220182Y-16744746D01*
X10220182Y-16744746D02*
X10210658Y-16697127D01*
X10210658Y-16697127D02*
X10201134Y-16668555D01*
X10201134Y-16668555D02*
X10191611Y-16649508D01*
X10191611Y-16649508D02*
X10172563Y-16620936D01*
X10172563Y-16620936D02*
X10163039Y-16611412D01*
M02*
