M48
; DRILL file KiCad 10.0.6 date 2026-09-21T18:49:35
; FORMAT={-:-/ absolute / metric / decimal}
; #@! TF.CreationDate,2026-09-21T18:49:35+02:00
; #@! TF.GenerationSoftware,Kicad,Pcbnew,10.0.6
; #@! TF.FileFunction,MixedPlating,1,2
FMAT,2
METRIC
; #@! TA.AperFunction,Plated,PTH,ComponentDrill
T1C0.700
; #@! TA.AperFunction,Plated,PTH,ComponentDrill
T2C0.800
; #@! TA.AperFunction,Plated,PTH,ComponentDrill
T3C0.900
; #@! TA.AperFunction,Plated,PTH,ComponentDrill
T4C1.000
; #@! TA.AperFunction,Plated,PTH,ComponentDrill
T5C1.300
; #@! TA.AperFunction,NonPlated,NPTH,ComponentDrill
T6C3.200
%
G90
G05
T1
X107.5Y-38.5
X115.12Y-38.5
T2
X80.0Y-107.0
X80.19Y-93.0
X80.19Y-100.0
X90.16Y-107.0
X90.35Y-93.0
X90.35Y-100.0
X98.5Y-76.0
X98.5Y-78.54
X98.5Y-81.08
X98.5Y-83.62
X98.5Y-86.16
X98.5Y-88.7
X98.5Y-91.24
X98.5Y-93.78
X98.5Y-96.32
X98.5Y-98.86
X98.5Y-101.4
X98.5Y-103.94
X98.5Y-106.48
X98.5Y-109.02
X98.5Y-111.56
X98.5Y-114.1
X98.5Y-116.64
X98.504Y-119.177
X98.504Y-121.717
X105.66Y-44.61
X105.66Y-47.15
X105.66Y-49.69
X105.66Y-52.23
X105.66Y-54.77
X105.66Y-57.31
X105.66Y-59.85
X105.66Y-62.39
X118.36Y-44.61
X118.36Y-47.15
X118.36Y-49.69
X118.36Y-52.23
X118.36Y-54.77
X118.36Y-57.31
X118.36Y-59.85
X118.36Y-62.39
X123.9Y-76.0
X123.9Y-78.54
X123.9Y-81.08
X123.9Y-83.62
X123.9Y-86.16
X123.9Y-88.7
X123.9Y-91.24
X123.9Y-93.78
X123.9Y-96.32
X123.9Y-98.86
X123.9Y-101.4
X123.9Y-103.94
X123.9Y-106.48
X123.9Y-109.02
X123.9Y-111.56
X123.9Y-114.1
X123.9Y-116.64
X123.9Y-119.18
X123.9Y-121.72
T3
X67.535Y-93.0
X67.535Y-100.0
X67.535Y-107.2
X70.075Y-93.0
X70.075Y-100.0
X70.075Y-107.2
T4
X54.132Y-118.0
X59.132Y-118.0
X93.5Y-47.0
X98.5Y-47.0
T5
X53.84Y-133.0
X58.92Y-133.0
X64.0Y-133.0
X65.0Y-46.0
X65.0Y-51.08
X65.0Y-56.16
X65.0Y-61.24
X65.0Y-69.5
X65.0Y-74.58
X65.0Y-79.66
X65.0Y-84.74
X72.92Y-133.0
X78.0Y-133.0
X83.08Y-133.0
X88.16Y-133.0
X93.24Y-133.0
X125.34Y-133.672
X130.42Y-133.672
X135.5Y-133.672
X140.58Y-133.672
X145.66Y-133.672
T6
X50.0Y-30.0
X50.0Y-150.0
X145.0Y-30.0
X145.0Y-150.0
M30
